ply
format ascii 1.0
comment VTK generated PLY File
comment obj_info vtkPolyData points and polygons: vtk4.0
element vertex 258
property float x
property float y
property float z
element face 448
property list uchar int vertex_indices
end_header
0.045382 -0.003771 0.097894 
0.046672 -0.005913 0.098066 
0.04401 -0.006078 0.097626 
0.043468 -0.004041 0.097741 
0.048015 -0.007658 0.098862 
0.044825 -0.007521 0.097635 
0.049039 -0.009612 0.099509 
0.046434 -0.009637 0.09791 
0.049707 -0.011597 0.100273 
0.047835 -0.01178 0.098489 
0.052322 -0.013711 0.101459 
0.049037 -0.013872 0.0987 
0.054991 -0.016183 0.101088 
0.052473 -0.016805 0.098864 
0.055878 -0.018141 0.100285 
0.054422 -0.019233 0.098543 
0.056626 -0.020678 0.099385 
0.055731 -0.022119 0.098269 
0.037745 -0.001384 0.100073 
0.037679 0 0.099951 
0.038489 0 0.098677 
0.038588 -0.001337 0.098745 
0.038131 -0.002942 0.100493 
0.039072 -0.003183 0.099112 
0.038795 -0.005638 0.101139 
0.039531 -0.004789 0.099339 
0.039624 -0.008229 0.101823 
0.040281 -0.007138 0.099895 
0.040655 -0.010327 0.102079 
0.041201 -0.009343 0.100131 
0.041967 -0.01249 0.101356 
0.042249 -0.011331 0.099967 
0.043679 -0.014415 0.100498 
0.044024 -0.013405 0.099309 
0.046257 -0.01641 0.099511 
0.046566 -0.015684 0.098515 
0.049438 -0.020142 0.098501 
0.049445 -0.019388 0.097907 
0.052487 -0.021393 0.098023 
0.052633 -0.021024 0.097602 
0.053359 -0.023776 0.098269 
0.054875 -0.02302 0.097539 
0.039784 0 0.097692 
0.040094 -0.001393 0.09786 
0.040427 -0.002631 0.098094 
0.040975 -0.004479 0.098417 
0.041414 -0.006493 0.098475 
0.042403 -0.008546 0.098479 
0.043431 -0.010461 0.09853 
0.045166 -0.01256 0.098087 
0.047125 -0.014898 0.098021 
0.050012 -0.018798 0.097597 
0.053099 -0.020824 0.097448 
0.041053 0 0.097498 
0.041663 -0.001381 0.097653 
0.042884 -1e-06 0.097404 
0.043125 -0.001334 0.097608 
0.041992 -0.002623 0.097807 
0.043279 -0.002595 0.097714 
0.0423 -0.00424 0.097975 
0.042901 -0.00628 0.097918 
0.0436 -0.007711 0.097955 
0.044858 -0.009841 0.097773 
0.046314 -0.011952 0.097802 
0.047996 -0.014234 0.097933 
0.050882 -0.017932 0.097689 
0.053802 -0.020895 0.097436 
0.038666 -0.006702 0.103269 
0.037934 -0.003307 0.101859 
0.038113 -0.003931 0.103694 
0.037846 -0.002012 0.103291 
0.037611 -0.001661 0.101648 
0.038513 -0.007492 0.105565 
0.040444 -0.011867 0.105436 
0.039725 -0.01008 0.10578 
0.039695 -0.009259 0.103413 
0.040711 -0.011183 0.103428 
0.046721 -0.019296 0.102121 
0.043795 -0.016746 0.103339 
0.043796 -0.01554 0.101803 
0.046654 -0.017749 0.100768 
0.049341 -0.023254 0.102385 
0.049915 -0.022002 0.100925 
0.05197 -0.023843 0.100724 
0.051401 -0.025079 0.101621 
0.04697 -0.020746 0.103702 
0.053073 -0.025264 0.100274 
0.052832 -0.025951 0.101319 
0.049812 -0.020778 0.099446 
0.052506 -0.022451 0.099201 
0.053031 -0.024496 0.099177 
0.055344 -0.022394 0.097449 
0.055231 -0.022619 0.097426 
0.041953 -0.013591 0.102556 
0.042448 -0.015445 0.106045 
0.042137 -0.01448 0.104458 
0.044063 -0.017927 0.105729 
0.040995 -0.01252 0.107144 
0.038814 -0.007472 0.107744 
0.039553 -0.01015 0.107508 
0.050095 -0.007317 0.102868 
0.048819 -0.006656 0.100651 
0.047867 -0.004147 0.099909 
0.04922 -0.003995 0.101947 
0.051303 -0.009406 0.103794 
0.05009 -0.008459 0.101694 
0.052495 -0.011601 0.104403 
0.051101 -0.010232 0.102232 
0.053915 -0.013404 0.104948 
0.053042 -0.012304 0.103075 
0.055686 -0.015254 0.105043 
0.054906 -0.014573 0.103649 
0.038394 -0.004498 0.105453 
0.038251 -0.002192 0.105398 
0.044887 -0.002525 0.097662 
0.038363 0 0.105503 
0.037689 7.8e-05 0.10335 
0.037356 0 0.101624 
0.044422 -0.001235 0.097561 
0.044404 -1e-06 0.097538 
0.047275 -0.002578 0.099285 
0.049036 -0.002711 0.101029 
0.046893 -0.001281 0.098269 
0.048788 -0.001486 0.100294 
0.046979 -1e-06 0.098384 
0.047989 -1e-06 0.099928 
0.056524 -0.016621 0.104621 
0.056292 -0.016144 0.10302 
0.057107 -0.01748 0.103904 
0.057035 -0.0176 0.102127 
0.057775 -0.018258 0.102834 
0.057282 -0.019105 0.101204 
0.058426 -0.018784 0.102168 
0.045382 0.003771 0.097894 
0.043468 0.004041 0.097741 
0.04401 0.006078 0.097626 
0.046672 0.005913 0.098066 
0.044825 0.007521 0.097635 
0.048015 0.007658 0.098862 
0.046434 0.009637 0.09791 
0.049039 0.009612 0.099509 
0.047835 0.01178 0.098489 
0.049707 0.011597 0.100273 
0.049037 0.013872 0.0987 
0.052322 0.013711 0.101459 
0.052473 0.016805 0.098864 
0.054991 0.016183 0.101088 
0.054422 0.019233 0.098543 
0.055878 0.018141 0.100285 
0.055731 0.022119 0.098269 
0.056626 0.020678 0.099385 
0.038588 0.001337 0.098745 
0.037745 0.001384 0.100073 
0.039072 0.003082 0.099112 
0.038131 0.003287 0.100493 
0.039575 0.004789 0.099587 
0.038839 0.005638 0.101387 
0.040281 0.007138 0.099895 
0.039624 0.008229 0.101823 
0.041201 0.009402 0.099828 
0.040655 0.010386 0.101775 
0.042249 0.011331 0.099967 
0.041967 0.01249 0.101356 
0.044024 0.013405 0.099309 
0.043679 0.014415 0.100498 
0.046566 0.015684 0.098515 
0.046257 0.01641 0.099511 
0.049445 0.019388 0.097907 
0.049438 0.020142 0.098501 
0.052633 0.021024 0.097602 
0.052487 0.021393 0.098023 
0.054875 0.02302 0.097539 
0.053359 0.023776 0.098269 
0.040094 0.001393 0.09786 
0.040427 0.002631 0.098094 
0.040975 0.004479 0.098417 
0.041414 0.006493 0.098475 
0.042403 0.008546 0.098479 
0.043431 0.010461 0.09853 
0.045166 0.01256 0.098087 
0.047125 0.014898 0.098021 
0.050012 0.018798 0.097597 
0.053099 0.020824 0.097448 
0.041663 0.001381 0.097653 
0.043125 0.001334 0.097608 
0.041992 0.002623 0.097807 
0.043279 0.002595 0.097714 
0.0423 0.00424 0.097975 
0.042901 0.00628 0.097918 
0.0436 0.007711 0.097955 
0.044858 0.009841 0.097773 
0.046314 0.011952 0.097802 
0.047996 0.014234 0.097933 
0.050882 0.017932 0.097689 
0.053802 0.020895 0.097436 
0.037934 0.003653 0.101859 
0.038666 0.006702 0.103269 
0.0374 0.001661 0.101648 
0.037846 0.002012 0.103291 
0.038113 0.003931 0.103694 
0.038513 0.007492 0.105565 
0.040711 0.011183 0.103428 
0.039695 0.009259 0.103413 
0.039725 0.01008 0.10578 
0.040444 0.011867 0.105436 
0.046654 0.017749 0.100768 
0.043796 0.01554 0.101803 
0.043795 0.016746 0.103339 
0.046721 0.019296 0.102121 
0.051401 0.025079 0.101621 
0.05197 0.023843 0.100724 
0.049915 0.022002 0.100925 
0.049341 0.023254 0.102385 
0.04697 0.020746 0.103702 
0.052832 0.025951 0.101319 
0.053073 0.025264 0.100274 
0.049812 0.020778 0.099446 
0.052506 0.022451 0.099201 
0.053031 0.024496 0.099177 
0.055344 0.022394 0.097449 
0.055231 0.022619 0.097426 
0.041953 0.013591 0.102556 
0.044063 0.017927 0.105729 
0.042137 0.01448 0.104458 
0.042448 0.015445 0.106045 
0.040995 0.01252 0.107144 
0.039553 0.01015 0.107508 
0.038814 0.007472 0.107744 
0.04922 0.003995 0.101947 
0.047867 0.004147 0.099909 
0.048819 0.006656 0.100651 
0.050095 0.007317 0.102868 
0.05009 0.008459 0.101694 
0.051303 0.009406 0.103794 
0.051101 0.010232 0.102232 
0.052495 0.011601 0.104403 
0.053042 0.012304 0.103075 
0.053915 0.013404 0.104948 
0.054906 0.014573 0.103649 
0.055686 0.015254 0.105043 
0.038394 0.004498 0.105453 
0.038251 0.002192 0.105398 
0.044887 0.002525 0.097662 
0.044422 0.001235 0.097561 
0.049036 0.002711 0.101029 
0.047275 0.002578 0.099285 
0.048788 0.001486 0.100294 
0.046893 0.001281 0.098269 
0.056292 0.016144 0.10302 
0.056524 0.016621 0.104621 
0.057035 0.0176 0.102127 
0.057107 0.01748 0.103904 
0.057282 0.019105 0.101204 
0.057775 0.018258 0.102834 
0.054567 0.025381 0.097983 
0.054116 0.02607 0.098533 
0.054089 0.026743 0.099595 
0.054036 0.027217 0.100612 
3 0 1 2 
3 0 2 3 
3 1 4 5 
3 1 5 2 
3 4 6 7 
3 4 7 5 
3 6 8 9 
3 6 9 7 
3 8 10 11 
3 8 11 9 
3 10 12 13 
3 10 13 11 
3 12 14 15 
3 12 15 13 
3 14 16 17 
3 14 17 15 
3 18 19 20 
3 18 20 21 
3 22 18 21 
3 22 21 23 
3 24 22 23 
3 24 23 25 
3 26 24 25 
3 26 25 27 
3 28 26 27 
3 28 27 29 
3 30 28 29 
3 30 29 31 
3 32 30 31 
3 32 31 33 
3 34 32 33 
3 34 33 35 
3 36 34 35 
3 36 35 37 
3 38 36 37 
3 38 37 39 
3 40 38 39 
3 40 39 41 
3 21 20 42 
3 21 42 43 
3 23 21 43 
3 23 43 44 
3 25 23 44 
3 25 44 45 
3 27 25 45 
3 27 45 46 
3 29 27 46 
3 29 46 47 
3 31 29 47 
3 31 47 48 
3 33 31 48 
3 33 48 49 
3 35 33 49 
3 35 49 50 
3 37 35 50 
3 37 50 51 
3 39 37 51 
3 39 51 52 
3 43 42 53 
3 43 53 54 
3 55 56 54 
3 55 54 53 
3 44 43 54 
3 44 54 57 
3 56 58 57 
3 56 57 54 
3 45 44 57 
3 45 57 59 
3 58 3 59 
3 58 59 57 
3 46 45 59 
3 46 59 60 
3 3 2 60 
3 3 60 59 
3 47 46 60 
3 47 60 61 
3 2 5 61 
3 2 61 60 
3 48 47 61 
3 48 61 62 
3 5 7 62 
3 5 62 61 
3 49 48 62 
3 49 62 63 
3 7 9 63 
3 7 63 62 
3 50 49 63 
3 50 63 64 
3 9 11 64 
3 9 64 63 
3 51 50 64 
3 51 64 65 
3 11 13 65 
3 11 65 64 
3 52 51 65 
3 52 65 66 
3 13 15 66 
3 13 66 65 
3 67 68 22 
3 67 22 24 
3 69 70 71 
3 69 71 68 
3 72 69 68 
3 72 68 67 
3 73 74 75 
3 73 75 76 
3 77 78 79 
3 77 79 80 
3 81 82 83 
3 81 83 84 
3 85 77 82 
3 85 82 81 
3 84 83 86 
3 84 86 87 
3 80 34 36 
3 80 36 88 
3 88 36 38 
3 88 38 89 
3 89 38 40 
3 89 40 90 
3 17 91 66 
3 17 66 15 
3 91 92 52 
3 91 52 66 
3 39 52 92 
3 39 92 41 
3 79 93 30 
3 79 30 32 
3 80 79 32 
3 80 32 34 
3 94 95 78 
3 94 78 96 
3 93 79 78 
3 93 78 95 
3 85 96 78 
3 85 78 77 
3 76 75 26 
3 76 26 28 
3 75 67 24 
3 75 24 26 
3 93 76 28 
3 93 28 30 
3 95 73 76 
3 95 76 93 
3 94 97 73 
3 94 73 95 
3 98 72 74 
3 98 74 99 
3 97 99 74 
3 97 74 73 
3 67 75 74 
3 67 74 72 
3 100 101 102 
3 100 102 103 
3 1 0 101 
3 101 0 102 
3 104 105 101 
3 104 101 100 
3 105 4 1 
3 105 1 101 
3 106 107 105 
3 106 105 104 
3 107 6 4 
3 107 4 105 
3 108 109 107 
3 108 107 106 
3 109 8 6 
3 109 6 107 
3 110 111 109 
3 110 109 108 
3 111 10 8 
3 111 8 109 
3 98 112 69 
3 98 69 72 
3 112 113 70 
3 112 70 69 
3 0 3 58 
3 0 58 114 
3 115 116 70 
3 115 70 113 
3 116 117 71 
3 116 71 70 
3 68 71 18 
3 68 18 22 
3 71 117 19 
3 71 19 18 
3 114 58 56 
3 114 56 118 
3 118 56 55 
3 118 55 119 
3 103 102 120 
3 103 120 121 
3 102 0 114 
3 102 114 120 
3 121 120 122 
3 121 122 123 
3 120 114 118 
3 120 118 122 
3 123 122 124 
3 123 124 125 
3 122 118 119 
3 122 119 124 
3 80 88 82 
3 80 82 77 
3 89 90 86 
3 89 86 83 
3 88 89 83 
3 88 83 82 
3 126 127 111 
3 126 111 110 
3 127 12 10 
3 127 10 111 
3 128 129 127 
3 128 127 126 
3 129 14 12 
3 129 12 127 
3 130 131 129 
3 130 129 128 
3 131 16 14 
3 131 14 129 
3 132 131 130 
3 133 134 135 
3 133 135 136 
3 136 135 137 
3 136 137 138 
3 138 137 139 
3 138 139 140 
3 140 139 141 
3 140 141 142 
3 142 141 143 
3 142 143 144 
3 144 143 145 
3 144 145 146 
3 146 145 147 
3 146 147 148 
3 148 147 149 
3 148 149 150 
3 151 20 19 
3 151 19 152 
3 153 151 152 
3 153 152 154 
3 155 153 154 
3 155 154 156 
3 157 155 156 
3 157 156 158 
3 159 157 158 
3 159 158 160 
3 161 159 160 
3 161 160 162 
3 163 161 162 
3 163 162 164 
3 165 163 164 
3 165 164 166 
3 167 165 166 
3 167 166 168 
3 169 167 168 
3 169 168 170 
3 171 169 170 
3 171 170 172 
3 173 42 20 
3 173 20 151 
3 174 173 151 
3 174 151 153 
3 175 174 153 
3 175 153 155 
3 176 175 155 
3 176 155 157 
3 177 176 157 
3 177 157 159 
3 178 177 159 
3 178 159 161 
3 179 178 161 
3 179 161 163 
3 180 179 163 
3 180 163 165 
3 181 180 165 
3 181 165 167 
3 182 181 167 
3 182 167 169 
3 183 53 42 
3 183 42 173 
3 55 53 183 
3 55 183 184 
3 185 183 173 
3 185 173 174 
3 184 183 185 
3 184 185 186 
3 187 185 174 
3 187 174 175 
3 186 185 187 
3 186 187 134 
3 188 187 175 
3 188 175 176 
3 134 187 188 
3 134 188 135 
3 189 188 176 
3 189 176 177 
3 135 188 189 
3 135 189 137 
3 190 189 177 
3 190 177 178 
3 137 189 190 
3 137 190 139 
3 191 190 178 
3 191 178 179 
3 139 190 191 
3 139 191 141 
3 192 191 179 
3 192 179 180 
3 141 191 192 
3 141 192 143 
3 193 192 180 
3 193 180 181 
3 143 192 193 
3 143 193 145 
3 194 193 181 
3 194 181 182 
3 145 193 194 
3 145 194 147 
3 156 154 195 
3 156 195 196 
3 195 197 198 
3 195 198 199 
3 196 195 199 
3 196 199 200 
3 201 202 203 
3 201 203 204 
3 205 206 207 
3 205 207 208 
3 209 210 211 
3 209 211 212 
3 212 211 208 
3 212 208 213 
3 214 215 210 
3 214 210 209 
3 216 168 166 
3 216 166 205 
3 217 170 168 
3 217 168 216 
3 218 172 170 
3 218 170 217 
3 147 194 219 
3 147 219 149 
3 194 182 220 
3 194 220 219 
3 171 220 182 
3 171 182 169 
3 164 162 221 
3 164 221 206 
3 166 164 206 
3 166 206 205 
3 222 207 223 
3 222 223 224 
3 223 207 206 
3 223 206 221 
3 208 207 222 
3 208 222 213 
3 160 158 202 
3 160 202 201 
3 158 156 196 
3 158 196 202 
3 162 160 201 
3 162 201 221 
3 221 201 204 
3 221 204 223 
3 223 204 225 
3 223 225 224 
3 226 203 200 
3 226 200 227 
3 204 203 226 
3 204 226 225 
3 200 203 202 
3 200 202 196 
3 228 229 230 
3 228 230 231 
3 229 133 136 
3 229 136 230 
3 231 230 232 
3 231 232 233 
3 230 136 138 
3 230 138 232 
3 233 232 234 
3 233 234 235 
3 232 138 140 
3 232 140 234 
3 235 234 236 
3 235 236 237 
3 234 140 142 
3 234 142 236 
3 237 236 238 
3 237 238 239 
3 236 142 144 
3 236 144 238 
3 200 199 240 
3 200 240 227 
3 199 198 241 
3 199 241 240 
3 242 186 134 
3 242 134 133 
3 241 198 116 
3 241 116 115 
3 198 197 117 
3 198 117 116 
3 154 152 197 
3 154 197 195 
3 152 19 117 
3 152 117 197 
3 243 184 186 
3 243 186 242 
3 119 55 184 
3 119 184 243 
3 244 245 229 
3 244 229 228 
3 245 242 133 
3 245 133 229 
3 246 247 245 
3 246 245 244 
3 247 243 242 
3 247 242 245 
3 125 124 247 
3 125 247 246 
3 124 119 243 
3 124 243 247 
3 208 211 216 
3 208 216 205 
3 210 215 218 
3 210 218 217 
3 211 210 217 
3 211 217 216 
3 239 238 248 
3 239 248 249 
3 238 144 146 
3 238 146 248 
3 249 248 250 
3 249 250 251 
3 248 146 148 
3 248 148 250 
3 251 250 252 
3 251 252 253 
3 250 148 150 
3 250 150 252 
3 171 172 254 
3 172 218 255 
3 172 255 254 
3 218 215 256 
3 218 256 255 
3 215 214 257 
3 215 257 256 
