ply
format ascii 1.0
comment VTK generated PLY File
comment obj_info vtkPolyData points and polygons: vtk4.0
element vertex 274
property float x
property float y
property float z
element face 479
property list uchar int vertex_indices
end_header
0.056043 -0.017535 0.099365 
0.055031 -0.015639 0.099506 
0.053014 -0.016231 0.098678 
0.054743 -0.018522 0.098556 
0.052346 -0.013693 0.099523 
0.050483 -0.01404 0.098554 
0.050147 -0.011815 0.098368 
0.048865 -0.012095 0.09737 
0.049954 -0.009889 0.098222 
0.047608 -0.009809 0.096518 
0.049955 -0.008116 0.097883 
0.047212 -0.008205 0.096352 
0.04941 -0.005908 0.096958 
0.046483 -0.006063 0.096255 
0.049474 -0.004013 0.096492 
0.045695 -0.004124 0.096182 
0.050008 -0.002094 0.096215 
0.045935 -0.002204 0.096178 
0.049778 -3e-06 0.095997 
0.046478 1e-06 0.096382 
0.051385 -0.017385 0.090755 
0.053583 -0.019588 0.092706 
0.05329 -0.019728 0.094254 
0.050683 -0.016679 0.093052 
0.048887 -0.01479 0.088733 
0.048135 -0.014155 0.091193 
0.047281 -0.012359 0.087059 
0.046434 -0.011817 0.089982 
0.045899 -0.010253 0.086229 
0.045014 -0.009481 0.089281 
0.044808 -0.008312 0.085959 
0.043795 -0.007815 0.089205 
0.044051 -0.006379 0.086221 
0.043271 -0.006121 0.089572 
0.04307 -0.004318 0.087235 
0.042695 -0.004102 0.090906 
0.042542 -0.002238 0.087663 
0.042414 -0.002009 0.091152 
0.042302 0 0.088009 
0.04215 0 0.09129 
0.054664 -0.021337 0.095461 
0.054903 -0.021438 0.09638 
0.053196 -0.02035 0.09588 
0.050591 -0.016608 0.095063 
0.048481 -0.013841 0.093836 
0.046474 -0.011755 0.092904 
0.044769 -0.009663 0.092675 
0.043756 -0.007796 0.092613 
0.043262 -0.005956 0.092796 
0.043169 -0.004068 0.093283 
0.043407 -0.002069 0.093705 
0.043496 0 0.093801 
0.053885 -0.020529 0.096892 
0.051294 -0.017012 0.096812 
0.049274 -0.014008 0.096312 
0.047612 -0.011973 0.095193 
0.046184 -0.009833 0.094684 
0.045187 -0.007994 0.094607 
0.044605 -0.006139 0.094589 
0.044143 -0.004181 0.094698 
0.044294 -0.002112 0.09502 
0.044796 0 0.095087 
0.046311 -0.006698 0.083566 
0.046812 -0.008933 0.083385 
0.048192 -0.010827 0.083842 
0.049055 -0.013002 0.08469 
0.054848 -0.02051 0.085001 
0.0572 -0.022568 0.087888 
0.054469 -0.020212 0.09094 
0.052482 -0.01832 0.088778 
0.051714 -0.014674 0.081121 
0.053032 -0.017526 0.082592 
0.050353 -0.015516 0.087373 
0.050451 -0.012208 0.080502 
0.049472 -0.009977 0.080008 
0.0492 -0.007402 0.080168 
0.047906 -0.002527 0.080743 
0.04891 -0.005074 0.080465 
0.045837 -0.004473 0.08413 
0.045589 -0.00222 0.08444 
0.058785 -0.023633 0.091048 
0.056102 -0.021905 0.093866 
0.059598 -0.024748 0.09314 
0.056749 -0.02425 0.095404 
0.055194 -0.021496 0.094608 
0.055284 -0.021851 0.097323 
0.05575 -0.020454 0.098347 
0.055422 -0.023585 0.096902 
0.055436 -0.023314 0.097471 
0.056279 -0.022752 0.097902 
0.055513 -0.02377 0.096439 
0.056089 -0.023954 0.096001 
0.056667 -0.01932 0.099091 
0.059283 -0.026196 0.094736 
0.057421 -0.026248 0.09586 
0.057566 -0.021223 0.098768 
0.056907 -0.026115 0.09628 
0.056729 -0.025973 0.096597 
0.056701 -0.02572 0.096823 
0.056873 -0.025357 0.097092 
0.057444 -0.024658 0.097573 
0.058804 -0.021706 0.099028 
0.056723 -0.004382 0.090606 
0.056883 -0.003029 0.090309 
0.054821 -0.002222 0.092868 
0.054986 -0.003926 0.093729 
0.05287 -0.001974 0.095329 
0.051881 -0.003864 0.096146 
0.056727 -0.006051 0.091543 
0.054807 -0.005605 0.094269 
0.051618 -0.005692 0.096967 
0.057097 -0.007453 0.092232 
0.054792 -0.007341 0.095064 
0.051837 -0.00782 0.098054 
0.057393 -0.008406 0.092799 
0.055019 -0.008772 0.095663 
0.051811 -0.009674 0.098603 
0.057805 -0.009543 0.093191 
0.055666 -0.010442 0.096552 
0.051886 -0.011396 0.098717 
0.058658 -0.01167 0.093778 
0.057105 -0.012672 0.09756 
0.054846 -0.013325 0.099824 
0.059733 -0.013456 0.094577 
0.058379 -0.014744 0.098484 
0.056832 -0.015295 0.099749 
0.0609 -0.014491 0.095293 
0.058519 -0.016516 0.098657 
0.057408 -0.017163 0.099758 
0.061391 -0.016285 0.096441 
0.058512 -0.017849 0.098908 
0.05761 -0.018517 0.099702 
0.061604 -0.017628 0.097754 
0.059171 -0.018225 0.099503 
0.057979 -0.019114 0.10014 
0.062313 -0.01776 0.099392 
0.060734 -0.018045 0.100003 
0.058596 -0.019355 0.100798 
0.055175 -1e-06 0.089986 
0.054186 -1e-06 0.09335 
0.052664 -1e-06 0.094815 
0.044838 0 0.084822 
0.04869 0 0.080827 
0.056043 0.017535 0.099365 
0.054743 0.018522 0.098556 
0.053014 0.016231 0.098678 
0.055031 0.015639 0.099506 
0.050483 0.01404 0.098554 
0.052346 0.013693 0.099523 
0.048865 0.012095 0.09737 
0.050147 0.011815 0.098368 
0.047608 0.009809 0.096518 
0.049954 0.009889 0.098222 
0.047212 0.008205 0.096352 
0.049955 0.008116 0.097883 
0.046483 0.006063 0.096255 
0.04941 0.005908 0.096958 
0.045695 0.004124 0.096182 
0.049474 0.004013 0.096492 
0.045755 0.002202 0.096142 
0.050008 0.002094 0.096215 
0.050683 0.016679 0.093052 
0.05329 0.019728 0.094254 
0.053583 0.019588 0.092706 
0.051385 0.017385 0.090755 
0.048135 0.014155 0.091193 
0.048887 0.01479 0.088733 
0.046434 0.011817 0.089982 
0.047281 0.012359 0.087059 
0.045014 0.009481 0.089281 
0.045899 0.010253 0.086229 
0.043795 0.007815 0.089205 
0.044808 0.008312 0.085959 
0.043271 0.006121 0.089572 
0.044051 0.006379 0.086221 
0.04302 0.004038 0.090781 
0.043426 0.004318 0.087262 
0.042581 0.001996 0.091129 
0.042542 0.002238 0.087663 
0.053196 0.02035 0.09588 
0.054903 0.021438 0.09638 
0.054664 0.021337 0.095461 
0.050591 0.016608 0.095063 
0.048481 0.013841 0.093836 
0.046474 0.011755 0.092904 
0.044769 0.009663 0.092675 
0.043756 0.007796 0.092613 
0.043262 0.005956 0.092796 
0.043169 0.004068 0.093283 
0.043407 0.002069 0.093705 
0.051294 0.017012 0.096812 
0.053885 0.020529 0.096892 
0.049274 0.014008 0.096312 
0.047612 0.011973 0.095193 
0.046184 0.009833 0.094684 
0.045187 0.007994 0.094607 
0.044605 0.006139 0.094589 
0.044143 0.004181 0.094698 
0.044294 0.002112 0.09502 
0.046812 0.008933 0.083385 
0.046311 0.006698 0.083566 
0.048192 0.010827 0.083842 
0.049055 0.013002 0.08469 
0.052482 0.01832 0.088778 
0.054469 0.020212 0.09094 
0.0572 0.022568 0.087888 
0.054848 0.02051 0.085001 
0.050353 0.015516 0.087373 
0.053032 0.017526 0.082592 
0.051714 0.014674 0.081121 
0.050451 0.012208 0.080502 
0.049472 0.009977 0.080008 
0.0492 0.007402 0.080168 
0.045201 0.00222 0.084436 
0.045837 0.004473 0.08413 
0.04891 0.005074 0.080465 
0.048239 0.002527 0.080726 
0.056102 0.021905 0.093866 
0.058785 0.023633 0.091048 
0.056749 0.02425 0.095404 
0.059598 0.024748 0.09314 
0.055194 0.021496 0.094608 
0.05575 0.020454 0.098347 
0.055284 0.021851 0.097323 
0.055436 0.023314 0.097471 
0.055422 0.023585 0.096902 
0.056279 0.022752 0.097902 
0.055513 0.02377 0.096439 
0.056089 0.023954 0.096001 
0.056667 0.01932 0.099091 
0.057421 0.026248 0.09586 
0.059283 0.026196 0.094736 
0.057566 0.021223 0.098768 
0.056907 0.026115 0.09628 
0.056729 0.025973 0.096597 
0.056701 0.02572 0.096823 
0.057444 0.024658 0.097573 
0.056873 0.025357 0.097092 
0.058804 0.021706 0.099028 
0.054986 0.003926 0.093729 
0.054821 0.002222 0.092868 
0.056883 0.003029 0.090309 
0.056723 0.004382 0.090606 
0.051881 0.003864 0.096146 
0.05287 0.001974 0.095329 
0.054807 0.005605 0.094269 
0.056727 0.006051 0.091543 
0.051618 0.005692 0.096967 
0.054792 0.007341 0.095064 
0.057097 0.007453 0.092232 
0.051837 0.00782 0.098054 
0.055019 0.008772 0.095663 
0.057393 0.008406 0.092799 
0.051811 0.009674 0.098603 
0.055666 0.010442 0.096552 
0.057805 0.009543 0.093191 
0.051886 0.011396 0.098717 
0.057105 0.012672 0.09756 
0.058658 0.01167 0.093778 
0.054846 0.013325 0.099824 
0.058379 0.014744 0.098484 
0.059733 0.013456 0.094577 
0.056832 0.015295 0.099749 
0.058519 0.016516 0.098657 
0.0609 0.014491 0.095293 
0.057408 0.017163 0.099758 
0.058512 0.017849 0.098908 
0.061391 0.016285 0.096441 
0.05761 0.018517 0.099702 
0.059171 0.018225 0.099503 
0.061604 0.017628 0.097754 
0.057979 0.019114 0.10014 
0.060734 0.018045 0.100003 
0.058596 0.019355 0.100798 
3 0 1 2 
3 0 2 3 
3 1 4 5 
3 1 5 2 
3 4 6 7 
3 4 7 5 
3 6 8 9 
3 6 9 7 
3 8 10 11 
3 8 11 9 
3 10 12 13 
3 10 13 11 
3 12 14 15 
3 12 15 13 
3 14 16 17 
3 14 17 15 
3 16 18 19 
3 16 19 17 
3 20 21 22 
3 20 22 23 
3 24 20 23 
3 24 23 25 
3 26 24 25 
3 26 25 27 
3 28 26 27 
3 28 27 29 
3 30 28 29 
3 30 29 31 
3 32 30 31 
3 32 31 33 
3 34 32 33 
3 34 33 35 
3 36 34 35 
3 36 35 37 
3 38 36 37 
3 38 37 39 
3 22 40 41 
3 22 41 42 
3 23 22 42 
3 23 42 43 
3 25 23 43 
3 25 43 44 
3 27 25 44 
3 27 44 45 
3 29 27 45 
3 29 45 46 
3 31 29 46 
3 31 46 47 
3 33 31 47 
3 33 47 48 
3 35 33 48 
3 35 48 49 
3 37 35 49 
3 37 49 50 
3 39 37 50 
3 39 50 51 
3 43 42 52 
3 43 52 53 
3 3 2 53 
3 3 53 52 
3 44 43 53 
3 44 53 54 
3 2 5 54 
3 2 54 53 
3 45 44 54 
3 45 54 55 
3 5 7 55 
3 5 55 54 
3 46 45 55 
3 46 55 56 
3 7 9 56 
3 7 56 55 
3 47 46 56 
3 47 56 57 
3 9 11 57 
3 9 57 56 
3 48 47 57 
3 48 57 58 
3 11 13 58 
3 11 58 57 
3 49 48 58 
3 49 58 59 
3 13 15 59 
3 13 59 58 
3 50 49 59 
3 50 59 60 
3 15 17 60 
3 15 60 59 
3 51 50 60 
3 51 60 61 
3 17 19 61 
3 17 61 60 
3 62 63 30 
3 62 30 32 
3 63 64 28 
3 63 28 30 
3 64 65 26 
3 64 26 28 
3 66 67 68 
3 66 68 69 
3 70 71 72 
3 70 72 65 
3 73 70 65 
3 73 65 64 
3 74 73 64 
3 74 64 63 
3 75 74 63 
3 75 63 62 
3 76 77 78 
3 76 78 79 
3 20 69 68 
3 20 68 21 
3 80 81 68 
3 80 68 67 
3 82 83 81 
3 82 81 80 
3 21 68 81 
3 21 81 84 
3 22 21 84 
3 22 84 40 
3 3 52 85 
3 3 85 86 
3 52 42 41 
3 52 41 85 
3 41 87 88 
3 41 88 85 
3 89 86 85 
3 89 85 88 
3 41 40 90 
3 41 90 87 
3 40 84 91 
3 40 91 90 
3 24 26 65 
3 24 65 72 
3 20 24 72 
3 20 72 69 
3 34 36 79 
3 34 79 78 
3 32 34 78 
3 32 78 62 
3 92 0 3 
3 92 3 86 
3 66 69 72 
3 66 72 71 
3 75 62 78 
3 75 78 77 
3 93 94 83 
3 93 83 82 
3 84 81 83 
3 84 83 91 
3 92 86 89 
3 92 89 95 
3 91 83 94 
3 91 94 96 
3 90 91 96 
3 90 96 97 
3 87 90 97 
3 87 97 98 
3 89 88 99 
3 89 99 100 
3 88 87 98 
3 88 98 99 
3 95 89 100 
3 95 100 101 
3 102 103 104 
3 102 104 105 
3 105 104 106 
3 105 106 107 
3 107 106 16 
3 107 16 14 
3 108 102 105 
3 108 105 109 
3 109 105 107 
3 109 107 110 
3 110 107 14 
3 110 14 12 
3 111 108 109 
3 111 109 112 
3 112 109 110 
3 112 110 113 
3 113 110 12 
3 113 12 10 
3 114 111 112 
3 114 112 115 
3 115 112 113 
3 115 113 116 
3 116 113 10 
3 116 10 8 
3 117 114 115 
3 117 115 118 
3 118 115 116 
3 118 116 119 
3 119 116 8 
3 119 8 6 
3 120 117 118 
3 120 118 121 
3 121 118 119 
3 121 119 122 
3 122 119 6 
3 122 6 4 
3 123 120 121 
3 123 121 124 
3 124 121 122 
3 124 122 125 
3 125 122 4 
3 125 4 1 
3 126 123 124 
3 126 124 127 
3 127 124 125 
3 127 125 128 
3 128 125 1 
3 1 0 128 
3 129 126 127 
3 129 127 130 
3 130 127 128 
3 130 128 131 
3 128 0 131 
3 131 0 92 
3 132 129 130 
3 132 130 133 
3 133 130 131 
3 133 131 134 
3 134 131 92 
3 134 92 95 
3 135 132 133 
3 135 133 136 
3 136 133 134 
3 136 134 137 
3 137 134 95 
3 137 95 101 
3 103 138 139 
3 103 139 104 
3 104 139 140 
3 104 140 106 
3 106 140 18 
3 106 18 16 
3 76 79 141 
3 76 141 142 
3 36 38 141 
3 36 141 79 
3 143 144 145 
3 143 145 146 
3 146 145 147 
3 146 147 148 
3 148 147 149 
3 148 149 150 
3 150 149 151 
3 150 151 152 
3 152 151 153 
3 152 153 154 
3 154 153 155 
3 154 155 156 
3 156 155 157 
3 156 157 158 
3 158 157 159 
3 158 159 160 
3 160 159 19 
3 160 19 18 
3 161 162 163 
3 161 163 164 
3 165 161 164 
3 165 164 166 
3 167 165 166 
3 167 166 168 
3 169 167 168 
3 169 168 170 
3 171 169 170 
3 171 170 172 
3 173 171 172 
3 173 172 174 
3 175 173 174 
3 175 174 176 
3 177 175 176 
3 177 176 178 
3 39 177 178 
3 39 178 38 
3 179 180 181 
3 179 181 162 
3 182 179 162 
3 182 162 161 
3 183 182 161 
3 183 161 165 
3 184 183 165 
3 184 165 167 
3 185 184 167 
3 185 167 169 
3 186 185 169 
3 186 169 171 
3 187 186 171 
3 187 171 173 
3 188 187 173 
3 188 173 175 
3 189 188 175 
3 189 175 177 
3 51 189 177 
3 51 177 39 
3 190 191 179 
3 190 179 182 
3 144 191 190 
3 144 190 145 
3 192 190 182 
3 192 182 183 
3 145 190 192 
3 145 192 147 
3 193 192 183 
3 193 183 184 
3 147 192 193 
3 147 193 149 
3 194 193 184 
3 194 184 185 
3 149 193 194 
3 149 194 151 
3 195 194 185 
3 195 185 186 
3 151 194 195 
3 151 195 153 
3 196 195 186 
3 196 186 187 
3 153 195 196 
3 153 196 155 
3 197 196 187 
3 197 187 188 
3 155 196 197 
3 155 197 157 
3 198 197 188 
3 198 188 189 
3 157 197 198 
3 157 198 159 
3 61 198 189 
3 61 189 51 
3 159 198 61 
3 159 61 19 
3 174 172 199 
3 174 199 200 
3 172 170 201 
3 172 201 199 
3 170 168 202 
3 170 202 201 
3 203 204 205 
3 203 205 206 
3 202 207 208 
3 202 208 209 
3 201 202 209 
3 201 209 210 
3 199 201 210 
3 199 210 211 
3 200 199 211 
3 200 211 212 
3 213 214 215 
3 213 215 216 
3 163 204 203 
3 163 203 164 
3 205 204 217 
3 205 217 218 
3 218 217 219 
3 218 219 220 
3 221 217 204 
3 221 204 163 
3 181 221 163 
3 181 163 162 
3 222 223 191 
3 222 191 144 
3 223 180 179 
3 223 179 191 
3 223 224 225 
3 223 225 180 
3 226 224 223 
3 226 223 222 
3 225 227 181 
3 225 181 180 
3 227 228 221 
3 227 221 181 
3 207 202 168 
3 207 168 166 
3 203 207 166 
3 203 166 164 
3 214 213 178 
3 214 178 176 
3 200 214 176 
3 200 176 174 
3 229 222 144 
3 229 144 143 
3 208 207 203 
3 208 203 206 
3 215 214 200 
3 215 200 212 
3 220 219 230 
3 220 230 231 
3 228 219 217 
3 228 217 221 
3 232 226 222 
3 232 222 229 
3 233 230 219 
3 233 219 228 
3 234 233 228 
3 234 228 227 
3 235 234 227 
3 235 227 225 
3 236 237 224 
3 236 224 226 
3 237 235 225 
3 237 225 224 
3 238 236 226 
3 238 226 232 
3 239 240 241 
3 239 241 242 
3 243 244 240 
3 243 240 239 
3 243 158 160 
3 243 160 244 
3 245 239 242 
3 245 242 246 
3 247 243 239 
3 247 239 245 
3 247 156 158 
3 247 158 243 
3 248 245 246 
3 248 246 249 
3 250 247 245 
3 250 245 248 
3 250 154 156 
3 250 156 247 
3 251 248 249 
3 251 249 252 
3 253 250 248 
3 253 248 251 
3 253 152 154 
3 253 154 250 
3 254 251 252 
3 254 252 255 
3 256 253 251 
3 256 251 254 
3 256 150 152 
3 256 152 253 
3 257 254 255 
3 257 255 258 
3 259 256 254 
3 259 254 257 
3 259 148 150 
3 259 150 256 
3 260 257 258 
3 260 258 261 
3 262 259 257 
3 262 257 260 
3 262 146 148 
3 262 148 259 
3 263 260 261 
3 263 261 264 
3 265 262 260 
3 265 260 263 
3 265 143 146 
3 265 146 262 
3 266 263 264 
3 266 264 267 
3 268 265 263 
3 268 263 266 
3 268 229 143 
3 268 143 265 
3 269 266 267 
3 269 267 270 
3 271 268 266 
3 271 266 269 
3 271 232 229 
3 271 229 268 
3 272 269 270 
3 273 271 269 
3 273 269 272 
3 273 238 232 
3 273 232 271 
3 240 139 138 
3 240 138 241 
3 244 140 139 
3 244 139 240 
3 244 160 18 
3 244 18 140 
3 142 141 213 
3 142 213 216 
3 213 141 38 
3 213 38 178 
