ply
format ascii 1.0
comment VTK generated PLY File
obj_info vtkPolyData points and polygons: vtk4.0
element vertex 849
property float x
property float y
property float z
element face 1694
property list uchar int vertex_indices
end_header
104.458 -2.87962 121.488 
104.665 0 121.417 
106.675 -1.44591 119.428 
128.121 -9.2763 107.937 
127.997 -8.15813 106.949 
128.691 -9.25426 106.881 
102.863 -11.1043 121.564 
102.53 -9.84572 122.356 
102.09 -9.88381 121.589 
102.61 -9.41305 120.985 
101.849 -8.19454 121.893 
105.164 -2.97496 122.556 
125.276 -26.0237 101.495 
124.549 -25.7928 101.994 
124.469 -25.7615 100.375 
122.121 -19.1087 129.632 
118.934 -18.725 127.328 
120.715 -19.4198 127.674 
123.307 -25.3158 101.125 
136.877 -15.5653 84.9489 
137.049 -16.9958 84.4139 
136.26 -16.3231 83.6191 
104.715 -12.1175 122.726 
127.471 -11.5494 109.167 
127.427 -10.7389 110.124 
128.116 -10.1937 108.664 
123.766 -25.4726 102.864 
133.683 -8.23235 100.758 
133.863 -8.39354 101.71 
134.715 -9.11738 100.328 
130.015 -6.5125 105.95 
130.325 -5.21996 105.073 
131.373 -5.71771 106.184 
123.082 -21.7104 128.935 
103.945 -4.27087 122.454 
102.824 -5.66474 122.093 
104.245 -6.12617 120.318 
104.758 -5.85321 123.443 
131.485 -8.06239 101.572 
130.548 -8.44299 100.499 
130.848 -8.26377 102.507 
132.058 -6.02365 107.35 
131.839 -7.18185 105.643 
129.91 -7.7107 105.985 
128.697 -26.1138 91.8439 
129.305 -25.4216 90.0266 
129.793 -25.8758 91.5704 
122.255 -24.1451 100.988 
123.695 -24.4467 100.014 
123.602 -21.7924 101.269 
121.525 -22.5052 110.68 
121.684 -21.6863 111.679 
120.506 -22.227 112.327 
120.998 -22.9548 110.741 
135.877 -14.8474 85.2696 
137.058 -14.5968 86.7175 
137.458 -15.8646 87.6915 
136.807 -19.4324 86.481 
137.364 -18.1469 84.9236 
129.7 -8.82917 102.892 
130.702 -8.2258 104.479 
127.031 -9.02811 108.858 
126.024 -9.99819 110.185 
123.788 -14.3467 107.498 
124.165 -13.1532 109.234 
124.824 -13.6071 108.318 
128.207 -10.4784 107.308 
121.436 -23.93 108.996 
122.736 -22.842 109.658 
112.112 -18.0184 113.689 
111.397 -18.243 115.059 
110.701 -17.1607 114.722 
111.979 -15.7545 114.145 
132.506 -8.00831 103.059 
133.876 -8.50397 103.011 
127.731 -13.3517 118.457 
127.735 -13.9624 119.639 
128.956 -15.0114 118.439 
120.322 -23.8776 110.713 
103.856 -9.06915 123.351 
102.491 -7.69594 122.835 
134.13 -8.46195 98.5584 
132.483 -8.00213 100.349 
104.92 -15.9045 118.664 
103.706 -14.8125 119.919 
104.359 -13.6243 118.848 
104.603 -15.1447 121.3 
123.129 -23.9187 107.386 
122.542 -24.1675 107.071 
123.892 -24.7535 105.574 
106.751 -2.52239 123.631 
128.967 -9.43871 105.184 
135.337 -18.1649 82.4356 
133.565 -17.6107 82.9004 
134.941 -16.2821 83.2326 
103.479 -12.7555 120.738 
123.513 -22.0817 111.546 
124.297 -21.4351 113.321 
122.578 -21.3352 112.452 
113.598 -25.5687 100.826 
113.887 -24.7988 102.412 
112.972 -24.1849 100.465 
115.279 -23.776 99.8348 
114.352 -23.7893 102.266 
136.344 -19.4862 83.6001 
134.687 -20.3982 83.078 
124.964 -25.8322 98.3469 
124.575 -25.2616 97.3587 
125.879 -25.8494 95.5472 
126.819 -26.13 99.0758 
124.143 -24.442 98.1335 
124.946 -24.6575 95.6789 
128.34 -6.47654 105.414 
121.992 -24.6189 106.961 
125.723 -11.7881 110.151 
115.427 -22.6657 105.616 
114.421 -24.6295 104.709 
114.233 -23.4017 106.806 
114.886 -26.2455 103.266 
127.517 -25.2714 90.9111 
128.561 -23.4058 90.3578 
127.478 -25.9566 92.1277 
126.383 -25.5059 103.235 
121.229 -25.3283 107.064 
112.977 -26.0812 97.7822 
111.738 -24.6011 98.3619 
110.83 -24.9357 95.6752 
112.218 -23.7941 98.2445 
119.984 -25.5441 108.865 
125.987 -12.8237 108.851 
121.05 -17.8029 128.142 
119.119 -18.0013 128.124 
124.004 -23.8378 107.904 
128.46 -26.2153 94.277 
109.268 -17.1489 115.642 
110.257 -17.9488 117.054 
122.038 -25.4009 104.481 
133.325 -15.8522 85.439 
133.101 -7.85791 105.541 
132.607 -8.1537 107.755 
126.171 -11.2555 118.852 
108.822 -16.2868 115.129 
120.942 -2.30044 108.968 
120.446 0 109.717 
122.518 -1.18099 106.922 
122.208 -12.573 109.597 
123.604 -12.1194 109.845 
134.34 -10.4668 103.789 
114.489 -20.7097 109.654 
117.162 -19.7913 108.708 
114.957 -13.556 122.763 
114.499 -15.2457 123.63 
116.142 -13.8933 122.825 
124.344 -16.1484 125.563 
127.788 -15.9451 124.973 
125.861 -14.7708 123.74 
131.929 -3.28378 105.252 
128.572 -15.7288 120.892 
134.412 -11.8679 90.7736 
136.246 -11.8351 90.6164 
135.503 -13.2885 88.1034 
116.615 -23.2977 102.179 
131.712 -24.5901 89.0635 
130.513 -23.7155 87.5397 
126.536 -21.4375 125.966 
126.028 -21.4584 124.605 
126.786 -20.5544 121.375 
134.71 -9.21452 95.7897 
135.62 -9.9615 96.8541 
136.064 -10.5427 94.347 
132.437 -8.52925 97.3967 
133.519 -10.0604 93.8218 
114.116 -17.7887 112.287 
123.819 -10.3568 109.982 
116.749 -11.5138 122.62 
126.078 -25.359 92.8885 
126.325 -23.9201 93.2586 
118.808 -3.51659 111.171 
105.9 0 123.048 
126.94 -13.9678 121.267 
114.272 -22.4205 107.771 
113.889 -23.8223 96.7107 
115.367 -27.1364 100.897 
133.153 -19.7595 83.0678 
133.336 -10.0116 107.024 
107.526 -17.083 117.711 
109.364 -14.2621 115.55 
106.456 -14.861 116.577 
106.48 -16.2946 116.37 
130.914 -12.0071 112.392 
131.607 -14.5991 112.186 
131.553 -11.8726 111.358 
130.509 -16.7122 115.319 
130.3 -13.7876 114.467 
129.872 -14.9904 116.438 
114.7 -24.5488 110.377 
116.309 -26.6666 108.129 
116.7 -24.9076 111.764 
113.328 -22.036 113.247 
114.735 -22.5337 114.17 
115.095 -26.1216 106.244 
116.47 -27.4676 104.681 
116.488 -19.0374 120.187 
118.493 -19.0412 121.198 
116.555 -19.0455 122.154 
125.076 -22.9389 110.234 
112.816 -12.6567 123.411 
116.857 -14.9577 123.969 
114.042 -24.1218 107.883 
127.23 -11.6664 106.375 
137.07 -13.1437 89.1496 
134.743 -22.1403 86.2392 
116.688 -19.2243 124.292 
114.402 -19.4184 123.131 
115.744 -19.1043 125.46 
113.008 -18.7199 124.407 
114.458 -17.6462 125.118 
112.242 -16.4069 124.051 
112.951 -20.0436 111.947 
128.894 -17.5144 122.772 
128.191 -19.3636 123.432 
128.962 -17.9463 119.176 
118.3 -13.1626 122.792 
134.812 -14.3124 102.655 
135.706 -12.3552 98.8197 
135.257 -16.718 99.6305 
119.049 -14.3421 124.119 
131.942 -2.74197 107.133 
132.43 0 105.794 
130.981 0 110.266 
135.507 -10.5672 92.9653 
136.55 -12.831 94.4271 
132.11 0 103.972 
128.982 -4.09069 103.442 
131.09 -3.04076 103.653 
103.966 -10.5958 119.81 
107.059 -10.738 117.91 
124.484 -8.10539 109.085 
122.146 -8.27282 109.829 
129.545 -25.6726 100.701 
130.872 -25.8318 96.581 
131.538 -10.0689 94.8221 
130.015 -9.66198 97.9516 
129.915 -12.4612 94.6004 
128.112 -12.4937 99.0082 
126.534 -13.2575 103.09 
128.423 -10.268 102.153 
128.267 -15.4641 96.1041 
135.955 -17.1719 95.6878 
131.987 -12.2965 91.7297 
125.486 -13.5584 106.605 
128.408 -12.1472 116.347 
129.635 -9.77893 113.215 
131.488 -18.2492 111.296 
132.582 -20.264 106.258 
133.246 -14.8466 107.346 
130.809 -21.3546 109.643 
128.23 -23.6044 108.292 
126.786 -21.8931 112.669 
125.939 -24.4048 106.812 
134.137 -18.094 103.085 
134.035 -21.633 99.7788 
118.716 0 111.063 
126.665 -4.706 117.054 
126.484 0 117.42 
124.618 -3.84795 119.513 
122.809 -4.50918 121.296 
123.96 0 120.284 
122.431 0 121.636 
114.611 -2.6193 113.834 
112.966 -5.31066 115.807 
113.566 -1.18297 114.953 
110.596 -7.88951 117.223 
110.722 -2.47671 117.039 
113.12 -8.87351 116.183 
114.257 -6.47695 114.928 
115.861 -4.94741 113.283 
118.024 -3.5289 123.812 
115.448 -8.17461 123.643 
119.94 -5.99272 122.543 
114.168 -3.82938 124.787 
117.985 -13.4574 112.743 
115.265 -13.6632 113.792 
117.656 -11.177 113.465 
119.138 -12.3367 112.488 
111.967 -11.9007 115.877 
115.105 -9.39845 114.74 
117.923 -7.89472 112.931 
121.447 -12.8946 122.965 
119.828 -10.7869 122.264 
121.721 -20.0437 123.946 
120.893 -19.8878 118.165 
117.102 -16.4721 111.565 
115.618 -18.9074 110.763 
112.289 -19.8679 113.814 
112.477 -19.8789 115.796 
117.062 -19.7737 118.289 
119.108 -21.1719 115.408 
118.91 -17.2808 109.878 
119.902 -14.4663 110.798 
121.177 -20.7403 114.121 
122.853 -20.4333 115.148 
118.808 -24.0754 112.15 
120.235 -16.8965 109.044 
135.058 -22.1031 93.7611 
133.363 -24.7507 96.7897 
133.356 -24.5418 91.9718 
130.846 -25.7416 92.8158 
129.121 -18.967 91.2333 
127.368 -19.9736 94.6979 
128.523 -17.3462 94.1118 
129.295 -15.5508 93.3468 
127.154 -8.60866 116.397 
126.021 -8.33131 117.663 
125.147 -7.54718 118.766 
123.995 -8.35107 120.395 
128.784 -5.9868 114.029 
129.018 0 114.216 
130.855 -3.61082 110.379 
123.245 -6.41828 108.302 
122.115 -4.59548 108.261 
120.284 -7.04587 111.067 
120.073 -10.579 111.759 
107.433 -15.5651 123.165 
106.243 -16.7488 120.949 
132.39 -11.2993 109.525 
129.949 0 102.372 
131.536 -19.1281 84.8913 
132.537 -14.3788 88.6929 
130.659 -17.7968 87.86 
124.39 -12.1572 121.601 
113.596 -22.2105 109.251 
113.215 -22.2369 111.22 
121.857 -25.5037 101.156 
121.008 -24.9137 99.7797 
123.363 -19.3372 103.5 
122.051 -16.9415 106.977 
124.688 -16.2755 103.76 
121.709 -21.603 103.6 
129.089 -21.8178 111.347 
124.1 -21.5706 125.483 
126.676 -4.71807 104.01 
127.117 -1.84801 102.831 
124.582 -2.90615 104.8 
125.369 -6.29689 106.669 
128.252 -8.98354 114.89 
113.088 -19.3751 121.402 
114.632 -19.3393 120.075 
111.986 -19.0708 122.744 
110.558 -17.5576 123.835 
109.297 -17.8719 121.34 
136.845 -12.6677 91.5783 
119.913 0 123.017 
107.522 -5.35995 118.587 
129.533 -19.5756 114.444 
127.709 -20.8188 114.774 
130.108 -6.88732 111.687 
131.943 -25.3617 99.6055 
131.307 -8.53806 110.188 
127.943 -24.7727 105.54 
130.235 -24.7439 103.874 
132.735 -22.1751 85.0666 
131.269 -21.5751 85.2267 
136.733 -17.4655 90.9984 
129.88 -21.4839 87.7272 
112.132 -19.0771 119.444 
125.277 -21.5172 122.875 
124.414 -20.7052 120.068 
124.072 -21.211 123.365 
127.2 -20.2253 117.749 
123.38 -20.2881 117.24 
126.38 -16.7753 99.4479 
125.305 -20.7932 116.075 
117.189 0 111.832 
131.855 -23.2176 104.863 
132.72 -24.5025 100.719 
114.471 -20.2969 117.204 
116.823 -22.0739 115.315 
119.877 -19.2974 107.289 
120.828 -15.3092 125.395 
109.895 -14.5269 123.907 
127.413 0 102.664 
124.924 -22.1271 97.9313 
107.591 -12.4894 123.859 
109.411 -11.4304 124.033 
106.95 -9.22001 124.103 
122.147 -9.28492 121.751 
118.16 -26.8198 107.834 
130.247 -23.2604 107.705 
130.418 -15.2366 90.8031 
108.571 0 124.64 
118.696 -22.0784 104.529 
124.44 0 104.989 
135.625 -21.8396 89.4501 
124.83 -19.0705 100.825 
112.172 0 116.285 
106.577 0 119.547 
111.048 -8.64795 124.353 
109.2 -4.68834 124.728 
117.503 0 123.924 
111.564 0 125.288 
118.845 -24.2738 99.2557 
116.935 -24.5645 96.5275 
117.744 -27.5907 102.525 
119.22 -26.4291 100.337 
120.021 -26.7047 105.338 
115.062 -26.6443 97.0003 
102.289 -6.95478 121.354 
119.533 -23.5809 101.405 
110.778 -24.2904 91.5491 
112.73 -24.3927 92.3252 
111.207 -24.6007 91.5518 
111.58 -23.8479 92.3075 
112.33 -25.2526 92.7086 
110.384 -24.8269 91.9073 
109.893 -24.1264 91.8178 
111.495 -25.598 94.0893 
109.805 -24.4056 93.1348 
110.725 -23.6293 93.3214 
110.699 -23.8669 95.6292 
129.914 -16.2331 117.386 
124.125 -25.2359 98.9724 
124.231 -19.0162 102.201 
118.346 -18.9586 126.073 
118.758 -18.96 124.818 
118.399 -16.4017 126.358 
117.084 -18.1108 126.88 
117.526 -19.1409 125.481 
117.571 -19.0184 126.543 
115.965 -16.5766 125.302 
115.052 -24.5969 94.0806 
115.727 -25.3645 95.1863 
113.46 -23.878 94.3573 
114.237 -24.1894 93.7573 
119.278 -25.3951 98.463 
106.675 1.44591 119.428 
104.458 2.87962 121.488 
128.691 9.25426 106.881 
127.997 8.15813 106.949 
128.121 9.2763 107.937 
102.09 9.88381 121.589 
102.53 9.84572 122.356 
102.863 11.1043 121.564 
102.61 9.41305 120.985 
101.849 8.19454 121.893 
105.164 2.97496 122.556 
124.469 25.7615 100.375 
124.549 25.7928 101.994 
125.276 26.0237 101.495 
120.715 19.4198 127.674 
118.934 18.725 127.328 
122.121 19.1087 129.632 
123.307 25.3158 101.125 
136.26 16.3231 83.6191 
137.049 16.9958 84.4139 
136.877 15.5653 84.9489 
104.715 12.1175 122.726 
128.116 10.1937 108.664 
127.427 10.7389 110.124 
127.471 11.5494 109.167 
123.766 25.4726 102.864 
134.715 9.11738 100.328 
133.863 8.39354 101.71 
133.683 8.23235 100.758 
131.373 5.71771 106.184 
130.325 5.21996 105.073 
130.015 6.5125 105.95 
123.082 21.7104 128.935 
103.945 4.27087 122.454 
104.245 6.12617 120.318 
102.824 5.66474 122.093 
104.758 5.85321 123.443 
130.848 8.26377 102.507 
130.548 8.44299 100.499 
131.485 8.06239 101.572 
131.839 7.18185 105.643 
132.058 6.02365 107.35 
129.91 7.7107 105.985 
129.793 25.8758 91.5704 
129.305 25.4216 90.0266 
128.697 26.1138 91.8439 
123.695 24.4467 100.014 
122.255 24.1451 100.988 
123.602 21.7924 101.269 
120.506 22.227 112.327 
121.684 21.6863 111.679 
121.525 22.5052 110.68 
120.998 22.9548 110.741 
137.058 14.5968 86.7175 
135.877 14.8474 85.2696 
137.458 15.8646 87.6915 
137.364 18.1469 84.9236 
136.807 19.4324 86.481 
130.702 8.2258 104.479 
129.7 8.82917 102.892 
127.031 9.02811 108.858 
126.024 9.99819 110.185 
124.824 13.6071 108.318 
124.165 13.1532 109.234 
123.788 14.3467 107.498 
128.207 10.4784 107.308 
122.736 22.842 109.658 
121.436 23.93 108.996 
110.701 17.1607 114.722 
111.397 18.243 115.059 
112.112 18.0184 113.689 
111.979 15.7545 114.145 
133.876 8.50397 103.011 
132.506 8.00831 103.059 
128.956 15.0114 118.439 
127.735 13.9624 119.639 
127.731 13.3517 118.457 
120.322 23.8776 110.713 
102.491 7.69594 122.835 
103.856 9.06915 123.351 
134.13 8.46195 98.5584 
132.483 8.00213 100.349 
104.359 13.6243 118.848 
103.706 14.8125 119.919 
104.92 15.9045 118.664 
104.603 15.1447 121.3 
123.892 24.7535 105.574 
122.542 24.1675 107.071 
123.129 23.9187 107.386 
106.751 2.52239 123.631 
128.967 9.43871 105.184 
134.941 16.2821 83.2326 
133.565 17.6107 82.9004 
135.337 18.1649 82.4356 
103.479 12.7555 120.738 
122.578 21.3352 112.452 
124.297 21.4351 113.321 
123.513 22.0817 111.546 
112.972 24.1849 100.465 
113.887 24.7988 102.412 
113.598 25.5687 100.826 
114.352 23.7893 102.266 
115.279 23.776 99.8348 
134.687 20.3982 83.078 
136.344 19.4862 83.6001 
125.879 25.8494 95.5472 
124.575 25.2616 97.3587 
124.964 25.8322 98.3469 
126.819 26.13 99.0758 
124.946 24.6575 95.6789 
124.143 24.442 98.1335 
128.34 6.47654 105.414 
121.992 24.6189 106.961 
125.723 11.7881 110.151 
114.233 23.4017 106.806 
114.421 24.6295 104.709 
115.427 22.6657 105.616 
114.886 26.2455 103.266 
128.561 23.4058 90.3578 
127.517 25.2714 90.9111 
127.478 25.9566 92.1277 
126.383 25.5059 103.235 
121.229 25.3283 107.064 
110.83 24.9357 95.6752 
111.738 24.6011 98.3619 
112.977 26.0812 97.7822 
112.218 23.7941 98.2445 
119.984 25.5441 108.865 
125.987 12.8237 108.851 
119.119 18.0013 128.124 
121.05 17.8029 128.142 
124.004 23.8378 107.904 
128.46 26.2153 94.277 
110.257 17.9488 117.054 
109.268 17.1489 115.642 
122.038 25.4009 104.481 
133.325 15.8522 85.439 
132.607 8.1537 107.755 
133.101 7.85791 105.541 
126.171 11.2555 118.852 
108.822 16.2868 115.129 
122.518 1.18099 106.922 
120.942 2.30044 108.968 
123.604 12.1194 109.845 
122.208 12.573 109.597 
134.34 10.4668 103.789 
117.162 19.7913 108.708 
114.489 20.7097 109.654 
116.142 13.8933 122.825 
114.499 15.2457 123.63 
114.957 13.556 122.763 
125.861 14.7708 123.74 
127.788 15.9451 124.973 
124.344 16.1484 125.563 
131.929 3.28378 105.252 
128.572 15.7288 120.892 
135.503 13.2885 88.1034 
136.246 11.8351 90.6164 
134.412 11.8679 90.7736 
116.615 23.2977 102.179 
131.712 24.5901 89.0635 
130.513 23.7155 87.5397 
126.786 20.5544 121.375 
126.028 21.4584 124.605 
126.536 21.4375 125.966 
136.064 10.5427 94.347 
135.62 9.9615 96.8541 
134.71 9.21452 95.7897 
132.437 8.52925 97.3967 
133.519 10.0604 93.8218 
114.116 17.7887 112.287 
123.819 10.3568 109.982 
116.749 11.5138 122.62 
126.078 25.359 92.8885 
126.325 23.9201 93.2586 
118.808 3.51659 111.171 
126.94 13.9678 121.267 
114.272 22.4205 107.771 
113.889 23.8223 96.7107 
115.367 27.1364 100.897 
133.153 19.7595 83.0678 
133.336 10.0116 107.024 
107.526 17.083 117.711 
109.364 14.2621 115.55 
106.456 14.861 116.577 
106.48 16.2946 116.37 
131.553 11.8726 111.358 
131.607 14.5991 112.186 
130.914 12.0071 112.392 
129.872 14.9904 116.438 
130.3 13.7876 114.467 
130.509 16.7122 115.319 
116.7 24.9076 111.764 
116.309 26.6666 108.129 
114.7 24.5488 110.377 
114.735 22.5337 114.17 
113.328 22.036 113.247 
116.47 27.4676 104.681 
115.095 26.1216 106.244 
116.555 19.0455 122.154 
118.493 19.0412 121.198 
116.488 19.0374 120.187 
125.076 22.9389 110.234 
112.816 12.6567 123.411 
116.857 14.9577 123.969 
114.042 24.1218 107.883 
127.23 11.6664 106.375 
137.07 13.1437 89.1496 
134.743 22.1403 86.2392 
114.402 19.4184 123.131 
116.688 19.2243 124.292 
115.744 19.1043 125.46 
113.008 18.7199 124.407 
114.458 17.6462 125.118 
112.242 16.4069 124.051 
112.951 20.0436 111.947 
128.894 17.5144 122.772 
128.962 17.9463 119.176 
128.191 19.3636 123.432 
118.3 13.1626 122.792 
135.706 12.3552 98.8197 
134.812 14.3124 102.655 
135.257 16.718 99.6305 
119.049 14.3421 124.119 
131.942 2.74197 107.133 
135.507 10.5672 92.9653 
136.55 12.831 94.4271 
131.09 3.04076 103.653 
128.982 4.09069 103.442 
103.966 10.5958 119.81 
107.059 10.738 117.91 
124.484 8.10539 109.085 
122.146 8.27282 109.829 
129.545 25.6726 100.701 
130.872 25.8318 96.581 
131.538 10.0689 94.8221 
130.015 9.66198 97.9516 
129.915 12.4612 94.6004 
128.112 12.4937 99.0082 
128.423 10.268 102.153 
126.534 13.2575 103.09 
128.267 15.4641 96.1041 
135.955 17.1719 95.6878 
131.987 12.2965 91.7297 
125.486 13.5584 106.605 
129.635 9.77893 113.215 
128.408 12.1472 116.347 
133.246 14.8466 107.346 
132.582 20.264 106.258 
131.488 18.2492 111.296 
130.809 21.3546 109.643 
126.786 21.8931 112.669 
128.23 23.6044 108.292 
125.939 24.4048 106.812 
134.137 18.094 103.085 
134.035 21.633 99.7788 
124.618 3.84795 119.513 
126.665 4.706 117.054 
122.809 4.50918 121.296 
113.566 1.18297 114.953 
112.966 5.31066 115.807 
114.611 2.6193 113.834 
110.722 2.47671 117.039 
110.596 7.88951 117.223 
113.12 8.87351 116.183 
114.257 6.47695 114.928 
115.861 4.94741 113.283 
119.94 5.99272 122.543 
115.448 8.17461 123.643 
118.024 3.5289 123.812 
114.168 3.82938 124.787 
117.656 11.177 113.465 
115.265 13.6632 113.792 
117.985 13.4574 112.743 
119.138 12.3367 112.488 
115.105 9.39845 114.74 
111.967 11.9007 115.877 
117.923 7.89472 112.931 
119.828 10.7869 122.264 
121.447 12.8946 122.965 
120.893 19.8878 118.165 
121.721 20.0437 123.946 
117.102 16.4721 111.565 
115.618 18.9074 110.763 
112.477 19.8789 115.796 
112.289 19.8679 113.814 
119.108 21.1719 115.408 
117.062 19.7737 118.289 
119.902 14.4663 110.798 
118.91 17.2808 109.878 
121.177 20.7403 114.121 
122.853 20.4333 115.148 
118.808 24.0754 112.15 
120.235 16.8965 109.044 
135.058 22.1031 93.7611 
133.363 24.7507 96.7897 
130.846 25.7416 92.8158 
133.356 24.5418 91.9718 
127.368 19.9736 94.6979 
129.121 18.967 91.2333 
128.523 17.3462 94.1118 
129.295 15.5508 93.3468 
127.154 8.60866 116.397 
126.021 8.33131 117.663 
125.147 7.54718 118.766 
123.995 8.35107 120.395 
128.784 5.9868 114.029 
130.855 3.61082 110.379 
122.115 4.59548 108.261 
123.245 6.41828 108.302 
120.073 10.579 111.759 
120.284 7.04587 111.067 
107.433 15.5651 123.165 
106.243 16.7488 120.949 
132.39 11.2993 109.525 
131.536 19.1281 84.8913 
132.537 14.3788 88.6929 
130.659 17.7968 87.86 
124.39 12.1572 121.601 
113.596 22.2105 109.251 
113.215 22.2369 111.22 
121.857 25.5037 101.156 
121.008 24.9137 99.7797 
124.688 16.2755 103.76 
122.051 16.9415 106.977 
123.363 19.3372 103.5 
121.709 21.603 103.6 
129.089 21.8178 111.347 
124.1 21.5706 125.483 
127.117 1.84801 102.831 
126.676 4.71807 104.01 
124.582 2.90615 104.8 
125.369 6.29689 106.669 
128.252 8.98354 114.89 
114.632 19.3393 120.075 
113.088 19.3751 121.402 
111.986 19.0708 122.744 
110.558 17.5576 123.835 
109.297 17.8719 121.34 
136.845 12.6677 91.5783 
107.522 5.35995 118.587 
129.533 19.5756 114.444 
127.709 20.8188 114.774 
130.108 6.88732 111.687 
131.943 25.3617 99.6055 
131.307 8.53806 110.188 
127.943 24.7727 105.54 
130.235 24.7439 103.874 
132.735 22.1751 85.0666 
131.269 21.5751 85.2267 
136.733 17.4655 90.9984 
129.88 21.4839 87.7272 
112.132 19.0771 119.444 
124.414 20.7052 120.068 
125.277 21.5172 122.875 
124.072 21.211 123.365 
127.2 20.2253 117.749 
123.38 20.2881 117.24 
126.38 16.7753 99.4479 
125.305 20.7932 116.075 
132.72 24.5025 100.719 
131.855 23.2176 104.863 
114.471 20.2969 117.204 
116.823 22.0739 115.315 
119.877 19.2974 107.289 
120.828 15.3092 125.395 
109.895 14.5269 123.907 
124.924 22.1271 97.9313 
109.411 11.4304 124.033 
107.591 12.4894 123.859 
106.95 9.22001 124.103 
122.147 9.28492 121.751 
118.16 26.8198 107.834 
130.247 23.2604 107.705 
130.418 15.2366 90.8031 
118.696 22.0784 104.529 
135.625 21.8396 89.4501 
124.83 19.0705 100.825 
111.048 8.64795 124.353 
109.2 4.68834 124.728 
116.935 24.5645 96.5275 
118.845 24.2738 99.2557 
117.744 27.5907 102.525 
120.021 26.7047 105.338 
119.22 26.4291 100.337 
115.062 26.6443 97.0003 
102.289 6.95478 121.354 
119.533 23.5809 101.405 
111.207 24.6007 91.5518 
112.73 24.3927 92.3252 
110.778 24.2904 91.5491 
111.58 23.8479 92.3075 
112.33 25.2526 92.7086 
110.384 24.8269 91.9073 
109.893 24.1264 91.8178 
111.495 25.598 94.0893 
109.805 24.4056 93.1348 
110.699 23.8669 95.6292 
110.725 23.6293 93.3214 
129.914 16.2331 117.386 
124.125 25.2359 98.9724 
124.231 19.0162 102.201 
118.758 18.96 124.818 
118.346 18.9586 126.073 
118.399 16.4017 126.358 
117.084 18.1108 126.88 
117.526 19.1409 125.481 
117.571 19.0184 126.543 
115.965 16.5766 125.302 
115.727 25.3645 95.1863 
115.052 24.5969 94.0806 
113.46 23.878 94.3573 
114.237 24.1894 93.7573 
119.278 25.3951 98.463 
3 0 1 2 
3 3 4 5 
3 6 7 8 
3 6 8 9 
3 8 7 10 
3 9 8 10 
3 0 11 1 
3 12 13 14 
3 15 16 17 
3 18 14 13 
3 19 20 21 
3 22 7 6 
3 23 24 25 
3 13 26 18 
3 27 28 29 
3 30 31 32 
3 17 33 15 
3 11 0 34 
3 35 0 36 
3 0 35 34 
3 11 34 37 
3 38 39 40 
3 41 42 32 
3 32 42 43 
3 44 45 46 
3 18 47 48 
3 48 47 49 
3 50 51 52 
3 53 50 52 
3 19 54 55 
3 20 55 56 
3 19 55 20 
3 57 58 56 
3 56 58 20 
3 40 59 60 
3 24 61 25 
3 24 62 61 
3 63 64 65 
3 5 66 25 
3 3 5 25 
3 50 67 68 
3 53 67 50 
3 69 70 71 
3 69 71 72 
3 28 73 74 
3 75 76 77 
3 19 21 54 
3 78 67 53 
3 79 80 7 
3 27 29 81 
3 27 81 82 
3 83 84 85 
3 84 83 86 
3 87 88 89 
3 78 53 52 
3 1 11 90 
3 91 5 43 
3 91 43 60 
3 92 93 94 
3 92 94 21 
3 85 84 95 
3 95 84 86 
3 96 97 98 
3 99 100 101 
3 102 101 103 
3 103 101 100 
3 92 104 105 
3 106 107 108 
3 106 108 109 
3 110 111 107 
3 5 4 43 
3 4 3 61 
3 25 61 3 
3 30 43 112 
3 43 4 112 
3 113 88 67 
3 24 114 62 
3 115 116 117 
3 100 118 116 
3 100 116 103 
3 119 120 45 
3 119 45 121 
3 121 45 44 
3 13 12 122 
3 123 113 67 
3 124 125 126 
3 127 125 101 
3 125 124 99 
3 125 99 101 
3 123 67 128 
3 23 129 114 
3 23 114 24 
3 15 130 131 
3 16 15 131 
3 107 111 108 
3 106 109 14 
3 73 38 40 
3 132 87 89 
3 44 133 121 
3 44 46 133 
3 134 71 135 
3 88 68 67 
3 42 60 43 
3 78 128 67 
3 88 113 136 
3 54 21 94 
3 94 137 54 
3 137 94 93 
3 91 66 5 
3 138 41 139 
3 41 138 42 
3 129 64 114 
3 76 75 140 
3 134 141 71 
3 31 30 112 
3 132 68 87 
3 68 88 87 
3 142 143 144 
3 145 146 64 
3 29 28 74 
3 29 74 147 
3 138 147 74 
3 115 148 149 
3 150 151 152 
3 59 91 60 
3 153 154 155 
3 32 31 156 
3 76 157 77 
3 15 154 153 
3 96 98 68 
3 158 159 160 
3 40 39 59 
3 50 68 51 
3 161 102 103 
3 115 161 103 
3 115 103 116 
3 45 162 46 
3 45 120 163 
3 162 45 163 
3 164 165 166 
3 167 168 169 
3 168 167 81 
3 81 167 170 
3 170 167 171 
3 64 146 114 
3 72 172 69 
3 62 114 173 
3 30 32 43 
3 104 92 20 
3 92 21 20 
3 150 152 174 
3 175 119 121 
3 119 175 176 
3 175 121 108 
3 175 111 176 
3 111 175 108 
3 143 142 177 
3 58 104 20 
3 90 178 1 
3 76 179 157 
3 148 115 180 
3 181 127 102 
3 124 182 99 
3 102 127 101 
3 92 183 93 
3 138 139 184 
3 147 138 184 
3 134 135 185 
3 134 185 141 
3 141 72 71 
3 72 141 186 
3 186 141 187 
3 187 141 188 
3 141 185 188 
3 189 190 191 
3 192 193 194 
3 195 196 197 
3 198 195 199 
3 196 200 201 
3 202 203 204 
3 97 96 205 
3 173 114 146 
3 64 63 145 
3 151 150 206 
3 152 151 207 
3 208 116 200 
3 116 208 117 
3 201 200 118 
3 123 136 113 
3 187 188 83 
3 188 185 83 
3 129 23 209 
3 55 160 210 
3 55 210 56 
3 105 104 211 
3 104 57 211 
3 57 104 58 
3 120 119 176 
3 34 35 37 
3 204 212 213 
3 212 214 213 
3 213 214 215 
3 214 216 215 
3 217 216 151 
3 216 217 215 
3 89 88 136 
3 26 89 136 
3 218 69 172 
3 154 219 157 
3 219 220 221 
3 166 221 220 
3 157 219 221 
3 152 207 222 
3 152 222 174 
3 73 42 138 
3 138 74 73 
3 42 73 60 
3 73 40 60 
3 147 223 224 
3 225 224 223 
3 222 207 226 
3 227 228 229 
3 129 65 64 
3 167 230 171 
3 169 168 231 
3 228 227 156 
3 228 156 232 
3 82 81 170 
3 233 234 31 
3 86 22 95 
3 235 85 95 
3 83 85 187 
3 187 85 236 
3 157 221 77 
3 237 62 173 
3 237 173 238 
3 109 239 122 
3 109 133 240 
3 122 12 109 
3 14 109 12 
3 109 108 133 
3 109 240 239 
3 241 170 171 
3 170 241 242 
3 243 242 241 
3 243 244 242 
3 245 246 244 
3 243 247 244 
3 242 244 246 
3 242 246 39 
3 91 59 246 
3 39 246 59 
3 39 38 82 
3 224 248 231 
3 224 231 168 
3 81 29 168 
3 29 224 168 
3 225 248 224 
3 249 241 171 
3 250 63 65 
3 251 193 252 
3 241 249 243 
3 253 254 255 
3 255 190 253 
3 254 253 256 
3 209 250 129 
3 257 258 205 
3 257 205 259 
3 260 225 223 
3 132 259 205 
3 259 132 89 
3 260 261 225 
3 143 177 262 
3 263 264 265 
3 266 265 267 
3 264 267 265 
3 268 266 267 
3 269 270 271 
3 270 272 273 
3 270 274 272 
3 275 270 269 
3 275 269 276 
3 277 278 279 
3 277 280 278 
3 281 282 283 
3 281 283 284 
3 282 285 286 
3 287 283 286 
3 222 288 289 
3 290 203 291 
3 282 292 172 
3 292 293 172 
3 70 294 295 
3 292 282 281 
3 286 285 274 
3 275 286 274 
3 275 274 270 
3 174 289 279 
3 291 296 297 
3 298 292 299 
3 297 52 300 
3 52 51 300 
3 291 297 300 
3 300 301 291 
3 297 302 52 
3 298 299 303 
3 300 51 98 
3 300 98 301 
3 98 97 301 
3 261 304 248 
3 225 261 248 
3 261 305 304 
3 306 240 307 
3 308 120 309 
3 308 309 310 
3 247 243 311 
3 247 311 310 
3 312 140 251 
3 140 312 313 
3 314 140 313 
3 315 140 314 
3 263 314 313 
3 312 316 263 
3 263 316 317 
3 316 318 317 
3 319 238 320 
3 238 319 237 
3 62 237 61 
3 265 315 314 
3 265 314 263 
3 321 238 322 
3 287 321 322 
3 283 322 284 
3 322 283 287 
3 263 317 264 
3 154 157 179 
3 154 179 155 
3 86 323 22 
3 323 86 324 
3 324 86 83 
3 191 190 325 
3 190 189 193 
3 232 156 234 
3 232 234 326 
3 287 286 276 
3 276 286 275 
3 164 166 220 
3 324 83 185 
3 144 320 142 
3 183 92 105 
3 278 174 279 
3 26 13 122 
3 327 137 93 
3 327 93 183 
3 137 160 54 
3 137 328 160 
3 137 329 328 
3 140 315 330 
3 153 330 288 
3 331 218 148 
3 148 218 172 
3 148 172 293 
3 332 198 294 
3 195 198 332 
3 199 195 197 
3 218 332 294 
3 294 198 295 
3 69 218 294 
3 132 205 68 
3 68 205 96 
3 18 26 333 
3 18 334 47 
3 334 18 333 
3 99 182 118 
3 99 118 100 
3 335 336 337 
3 335 338 336 
3 47 338 49 
3 257 339 258 
3 156 227 32 
3 32 227 41 
3 33 290 340 
3 341 342 233 
3 341 343 342 
3 341 344 343 
3 112 344 341 
3 312 251 345 
3 312 345 316 
3 333 26 136 
3 346 347 213 
3 213 347 204 
3 219 154 220 
3 348 213 215 
3 348 215 349 
3 215 217 349 
3 348 349 350 
3 346 213 348 
3 112 341 233 
3 112 233 31 
3 230 169 351 
3 351 169 231 
3 230 167 169 
3 281 284 299 
3 277 279 352 
3 273 272 353 
3 354 339 256 
3 253 354 256 
3 339 354 355 
3 339 355 258 
3 354 253 192 
3 192 253 190 
3 356 318 316 
3 305 357 240 
3 358 191 325 
3 189 191 358 
3 189 358 252 
3 75 251 140 
3 312 263 313 
3 345 252 316 
3 356 316 252 
3 345 251 252 
3 26 122 89 
3 89 122 259 
3 259 122 359 
3 360 122 239 
3 359 122 360 
3 51 68 98 
3 183 105 361 
3 183 362 327 
3 362 183 361 
3 105 211 361 
3 248 363 231 
3 231 363 351 
3 77 194 251 
3 75 77 251 
3 80 79 37 
3 139 41 358 
3 41 227 318 
3 202 204 347 
3 364 362 163 
3 361 162 163 
3 163 362 361 
3 211 162 361 
3 364 327 362 
3 327 364 329 
3 54 160 55 
3 72 186 285 
3 187 236 186 
3 236 285 186 
3 135 350 185 
3 135 365 350 
3 356 252 358 
3 158 160 328 
3 166 366 367 
3 367 366 368 
3 340 368 366 
3 166 165 366 
3 166 367 369 
3 290 291 367 
3 290 367 368 
3 340 290 368 
3 370 367 291 
3 166 369 221 
3 309 371 247 
3 91 209 66 
3 355 369 372 
3 372 369 367 
3 367 370 372 
3 369 355 354 
3 372 258 355 
3 174 222 289 
3 346 348 365 
3 278 206 174 
3 177 373 262 
3 276 373 177 
3 373 276 269 
3 254 261 260 
3 261 374 375 
3 335 49 338 
3 155 179 330 
3 153 155 330 
3 46 307 133 
3 307 46 162 
3 295 376 365 
3 282 72 285 
3 282 172 72 
3 377 302 297 
3 257 259 359 
3 156 31 234 
3 234 233 326 
3 344 112 4 
3 344 4 61 
3 171 230 158 
3 158 249 171 
3 303 378 298 
3 78 52 302 
3 295 198 199 
3 117 180 115 
3 379 153 288 
3 226 379 288 
3 258 97 205 
3 290 33 17 
3 153 130 15 
3 349 217 380 
3 350 349 323 
3 323 349 380 
3 370 291 301 
3 342 381 326 
3 342 326 233 
3 139 325 184 
3 325 139 358 
3 252 193 189 
3 194 193 251 
3 120 176 309 
3 382 309 176 
3 378 303 336 
3 383 380 384 
3 383 384 385 
3 384 380 206 
3 383 323 380 
3 202 296 203 
3 287 177 321 
3 358 318 356 
3 330 386 288 
3 330 315 386 
3 288 386 289 
3 295 135 70 
3 70 69 294 
3 135 295 365 
3 296 347 376 
3 296 202 347 
3 199 197 377 
3 197 302 377 
3 179 76 140 
3 238 321 320 
3 248 304 363 
3 196 201 387 
3 387 197 196 
3 318 227 229 
3 193 192 190 
3 133 108 121 
3 354 221 369 
3 293 149 148 
3 339 388 256 
3 388 339 257 
3 330 179 140 
3 328 389 249 
3 389 328 329 
3 389 243 249 
3 328 249 158 
3 351 159 230 
3 230 159 158 
3 190 255 325 
3 151 206 217 
3 268 352 279 
3 279 266 268 
3 199 377 376 
3 199 376 295 
3 170 242 39 
3 82 170 39 
3 185 350 324 
3 250 209 245 
3 318 358 41 
3 287 276 177 
3 272 285 236 
3 307 240 133 
3 284 322 299 
3 299 322 145 
3 360 357 375 
3 375 374 360 
3 91 246 209 
3 209 246 245 
3 292 281 299 
3 390 178 90 
3 184 325 255 
3 310 311 308 
3 308 311 389 
3 376 347 365 
3 377 296 376 
3 2 353 36 
3 36 0 2 
3 323 324 350 
3 197 387 302 
3 338 391 378 
3 322 238 145 
3 238 173 145 
3 381 342 392 
3 378 149 298 
3 176 111 382 
3 240 357 239 
3 357 360 239 
3 379 130 153 
3 387 128 302 
3 57 393 211 
3 308 389 329 
3 375 357 305 
3 375 305 261 
3 306 307 162 
3 90 11 37 
3 336 299 145 
3 336 145 63 
3 303 299 336 
3 382 371 309 
3 382 394 371 
3 337 336 63 
3 250 337 63 
3 142 320 177 
3 297 296 377 
3 392 144 143 
3 206 380 217 
3 350 365 348 
3 37 79 385 
3 137 327 329 
3 343 144 392 
3 22 323 383 
3 22 383 385 
3 235 236 85 
3 378 336 338 
3 174 206 150 
3 211 393 306 
3 211 306 162 
3 395 273 396 
3 304 305 306 
3 305 240 306 
3 147 184 255 
3 269 271 373 
3 373 271 395 
3 206 397 384 
3 271 273 395 
3 115 391 161 
3 149 391 115 
3 308 364 120 
3 329 364 308 
3 163 120 364 
3 266 279 386 
3 266 386 315 
3 266 315 265 
3 386 279 289 
3 274 285 272 
3 78 302 128 
3 149 378 391 
3 343 392 342 
3 397 280 398 
3 258 372 97 
3 245 244 371 
3 250 245 337 
3 304 306 393 
3 393 57 363 
3 257 360 388 
3 359 360 257 
3 244 247 371 
3 243 389 311 
3 177 320 321 
3 291 203 296 
3 352 399 277 
3 260 255 254 
3 255 260 223 
3 223 147 255 
3 400 280 399 
3 280 277 399 
3 365 347 346 
3 353 272 236 
3 57 56 363 
3 245 371 337 
3 363 304 393 
3 273 353 2 
3 398 390 90 
3 385 397 398 
3 397 385 384 
3 273 2 396 
3 398 400 390 
3 90 37 398 
3 37 385 398 
3 235 36 236 
3 353 236 36 
3 398 280 400 
3 95 6 9 
3 235 95 9 
3 95 22 6 
3 9 36 235 
3 79 7 22 
3 79 22 385 
3 401 402 181 
3 182 403 201 
3 182 201 118 
3 118 200 116 
3 56 351 363 
3 56 210 351 
3 159 351 210 
3 159 210 160 
3 404 405 403 
3 124 406 182 
3 256 388 374 
3 254 256 374 
3 254 374 261 
3 293 292 149 
3 298 149 292 
3 164 220 154 
3 10 35 407 
3 80 35 10 
3 10 407 9 
3 35 36 407 
3 36 9 407 
3 35 80 37 
3 80 10 7 
3 195 208 200 
3 200 196 195 
3 332 208 195 
3 180 117 331 
3 331 117 208 
3 331 208 332 
3 148 180 331 
3 332 218 331 
3 338 47 408 
3 408 391 338 
3 408 161 391 
3 403 405 387 
3 403 387 201 
3 128 387 405 
3 123 405 136 
3 123 128 405 
3 409 410 411 
3 409 412 410 
3 411 410 413 
3 409 411 414 
3 411 413 414 
3 412 409 415 
3 416 414 413 
3 409 414 415 
3 415 414 417 
3 416 417 414 
3 126 417 416 
3 418 417 419 
3 419 417 126 
3 124 126 416 
3 406 416 413 
3 124 416 406 
3 334 401 47 
3 401 408 47 
3 102 408 401 
3 102 161 408 
3 192 221 354 
3 420 221 192 
3 420 192 194 
3 420 77 221 
3 420 194 77 
3 110 421 48 
3 421 14 48 
3 107 421 110 
3 107 106 421 
3 14 421 106 
3 48 382 110 
3 382 48 49 
3 111 110 382 
3 14 18 48 
3 394 382 49 
3 310 309 247 
3 237 344 61 
3 144 343 320 
3 422 394 49 
3 422 49 335 
3 422 335 337 
3 422 337 394 
3 394 337 371 
3 25 66 23 
3 23 66 209 
3 344 320 343 
3 319 320 344 
3 237 319 344 
3 423 424 16 
3 425 130 379 
3 131 425 426 
3 131 426 16 
3 423 427 424 
3 428 426 214 
3 428 214 427 
3 426 425 429 
3 427 212 424 
3 427 214 212 
3 427 423 428 
3 204 424 212 
3 204 203 424 
3 426 216 214 
3 426 429 216 
3 425 207 429 
3 151 216 429 
3 151 429 207 
3 226 207 425 
3 226 425 379 
3 131 130 425 
3 203 290 424 
3 17 16 424 
3 290 17 424 
3 430 431 410 
3 413 410 431 
3 413 431 406 
3 419 126 125 
3 181 418 419 
3 432 412 418 
3 432 418 181 
3 430 402 431 
3 432 433 412 
3 433 410 412 
3 432 181 402 
3 432 402 433 
3 433 430 410 
3 433 402 430 
3 404 136 405 
3 404 333 136 
3 403 406 404 
3 403 182 406 
3 404 434 333 
3 334 333 434 
3 401 181 102 
3 431 434 404 
3 406 431 404 
3 401 334 402 
3 402 334 434 
3 396 2 1 
3 282 286 283 
3 318 229 317 
3 82 73 27 
3 27 73 28 
3 38 73 82 
3 165 33 340 
3 33 165 164 
3 135 71 70 
3 224 29 147 
3 288 222 226 
3 145 173 146 
3 301 97 372 
3 301 372 370 
3 278 280 397 
3 278 397 206 
3 340 366 165 
3 129 250 65 
3 125 127 419 
3 181 419 127 
3 270 273 271 
3 388 360 374 
3 415 417 418 
3 415 418 412 
3 428 423 16 
3 428 16 426 
3 431 402 434 
3 33 164 15 
3 154 15 164 
3 435 1 436 
3 437 438 439 
3 440 441 442 
3 443 440 442 
3 444 441 440 
3 444 440 443 
3 1 445 436 
3 446 447 448 
3 449 450 451 
3 447 446 452 
3 453 454 455 
3 442 441 456 
3 457 458 459 
3 452 460 447 
3 461 462 463 
3 464 465 466 
3 451 467 449 
3 468 436 445 
3 469 436 470 
3 468 470 436 
3 471 468 445 
3 472 473 474 
3 464 475 476 
3 477 475 464 
3 478 479 480 
3 481 482 452 
3 483 482 481 
3 484 485 486 
3 484 486 487 
3 488 489 455 
3 490 488 454 
3 454 488 455 
3 490 491 492 
3 454 491 490 
3 493 494 472 
3 457 495 458 
3 495 496 458 
3 497 498 499 
3 457 500 437 
3 457 437 439 
3 501 502 486 
3 486 502 487 
3 503 504 505 
3 506 503 505 
3 507 508 462 
3 509 510 511 
3 489 453 455 
3 487 502 512 
3 441 513 514 
3 515 461 463 
3 516 515 463 
3 517 518 519 
3 520 519 518 
3 521 522 523 
3 484 487 512 
3 524 445 1 
3 477 437 525 
3 493 477 525 
3 526 527 528 
3 453 526 528 
3 529 518 517 
3 520 518 529 
3 530 531 532 
3 533 534 535 
3 536 533 537 
3 534 533 536 
3 538 539 528 
3 540 541 542 
3 543 540 542 
3 541 544 545 
3 477 438 437 
3 495 439 438 
3 439 495 457 
3 546 477 466 
3 546 438 477 
3 502 522 547 
3 496 548 458 
3 549 550 551 
3 550 552 534 
3 536 550 534 
3 479 553 554 
3 555 479 554 
3 480 479 555 
3 556 448 447 
3 502 547 557 
3 558 559 560 
3 533 559 561 
3 535 560 559 
3 533 535 559 
3 562 502 557 
3 548 563 459 
3 458 548 459 
3 564 565 451 
3 564 451 450 
3 540 544 541 
3 446 543 542 
3 472 474 508 
3 521 523 566 
3 555 567 480 
3 567 478 480 
3 568 503 569 
3 502 501 522 
3 477 493 475 
3 502 562 512 
3 570 547 522 
3 526 453 489 
3 489 571 526 
3 527 526 571 
3 437 500 525 
3 572 476 573 
3 475 573 476 
3 548 498 563 
3 574 511 510 
3 503 575 569 
3 546 466 465 
3 523 501 566 
3 523 522 501 
3 576 143 577 
3 498 578 579 
3 507 462 461 
3 580 507 461 
3 507 580 573 
3 581 582 551 
3 583 584 585 
3 493 525 494 
3 586 587 588 
3 589 465 464 
3 509 590 510 
3 588 587 451 
3 501 530 532 
3 591 592 593 
3 494 473 472 
3 485 501 486 
3 536 537 594 
3 536 594 551 
3 550 536 551 
3 478 595 479 
3 596 553 479 
3 596 479 595 
3 597 598 599 
3 600 601 602 
3 515 602 601 
3 603 602 515 
3 604 602 603 
3 548 578 498 
3 505 605 506 
3 606 548 496 
3 477 464 466 
3 454 528 539 
3 454 453 528 
3 607 583 585 
3 555 554 608 
3 609 608 554 
3 540 555 608 
3 609 544 608 
3 540 608 544 
3 610 577 143 
3 454 539 491 
3 1 178 524 
3 590 611 510 
3 612 551 582 
3 537 561 613 
3 535 614 560 
3 533 561 537 
3 527 615 528 
3 616 572 573 
3 616 573 580 
3 617 568 569 
3 575 617 569 
3 503 506 575 
3 618 575 506 
3 619 575 618 
3 620 575 619 
3 620 617 575 
3 621 622 623 
3 624 625 626 
3 627 628 629 
3 630 629 631 
3 632 633 628 
3 634 635 636 
3 637 532 531 
3 578 548 606 
3 579 499 498 
3 638 585 584 
3 639 584 583 
3 633 550 640 
3 549 640 550 
3 552 633 632 
3 547 570 557 
3 519 620 619 
3 519 617 620 
3 641 459 563 
3 642 591 488 
3 490 642 488 
3 643 539 538 
3 643 492 539 
3 491 539 492 
3 609 554 553 
3 471 470 468 
3 644 645 634 
3 644 646 645 
3 647 646 644 
3 647 648 646 
3 584 648 649 
3 647 649 648 
3 570 522 521 
3 570 521 460 
3 605 505 650 
3 590 651 587 
3 652 653 651 
3 653 652 597 
3 652 651 590 
3 654 639 583 
3 607 654 583 
3 573 475 508 
3 508 507 573 
3 493 508 475 
3 493 472 508 
3 655 656 580 
3 656 655 657 
3 658 639 654 
3 229 228 659 
3 498 497 563 
3 604 660 602 
3 661 601 600 
3 589 659 228 
3 232 589 228 
3 603 515 516 
3 465 662 663 
3 529 456 520 
3 529 517 664 
3 619 517 519 
3 665 517 619 
3 509 652 590 
3 606 496 666 
3 667 606 666 
3 556 668 543 
3 669 567 543 
3 543 448 556 
3 448 543 446 
3 567 540 543 
3 668 669 543 
3 604 603 670 
3 671 670 603 
3 670 671 672 
3 671 673 672 
3 673 674 675 
3 673 676 672 
3 674 673 671 
3 473 674 671 
3 674 494 525 
3 494 674 473 
3 516 474 473 
3 661 677 655 
3 601 661 655 
3 601 461 515 
3 601 655 461 
3 655 677 657 
3 604 670 678 
3 497 499 679 
3 680 625 681 
3 672 678 670 
3 682 683 684 
3 684 622 682 
3 685 684 683 
3 563 679 641 
3 637 686 687 
3 688 637 687 
3 656 657 689 
3 637 688 566 
3 521 566 688 
3 657 690 689 
3 262 610 143 
3 691 264 692 
3 267 691 693 
3 691 267 264 
3 267 693 268 
3 694 695 696 
3 697 698 695 
3 698 699 695 
3 696 695 700 
3 701 696 700 
3 702 703 704 
3 703 705 704 
3 706 707 708 
3 709 706 708 
3 710 711 707 
3 710 706 712 
3 713 714 654 
3 715 635 716 
3 605 717 707 
3 605 718 717 
3 719 720 504 
3 708 707 717 
3 699 711 710 
3 699 710 700 
3 695 699 700 
3 702 713 607 
3 721 722 715 
3 723 717 724 
3 725 484 721 
3 725 485 484 
3 725 721 715 
3 715 726 725 
3 484 727 721 
3 728 723 724 
3 530 485 725 
3 726 530 725 
3 726 531 530 
3 677 729 690 
3 677 690 657 
3 729 730 690 
3 731 669 732 
3 733 553 734 
3 735 733 734 
3 736 672 676 
3 735 736 676 
3 681 574 737 
3 738 737 574 
3 738 574 739 
3 739 574 740 
3 738 739 692 
3 692 741 737 
3 317 741 692 
3 317 742 741 
3 743 667 744 
3 666 744 667 
3 495 666 496 
3 739 740 691 
3 692 739 691 
3 745 667 746 
3 745 746 712 
3 709 745 706 
3 712 706 745 
3 264 317 692 
3 611 590 587 
3 586 611 587 
3 456 747 520 
3 748 520 747 
3 519 520 748 
3 749 622 621 
3 625 623 622 
3 662 589 232 
3 326 662 232 
3 701 710 712 
3 700 710 701 
3 653 597 599 
3 617 519 748 
3 577 743 576 
3 538 528 615 
3 702 607 703 
3 556 447 460 
3 527 571 750 
3 615 527 750 
3 489 591 571 
3 591 751 571 
3 751 752 571 
3 753 740 574 
3 714 753 588 
3 582 650 754 
3 605 650 582 
3 718 605 582 
3 720 631 755 
3 755 631 629 
3 627 629 630 
3 720 755 650 
3 719 631 720 
3 720 650 505 
3 501 637 566 
3 532 637 501 
3 756 460 452 
3 482 757 452 
3 756 452 757 
3 552 614 535 
3 534 552 535 
3 758 759 760 
3 759 761 760 
3 483 761 482 
3 686 762 687 
3 464 659 589 
3 476 659 464 
3 763 716 467 
3 663 764 765 
3 764 766 765 
3 766 767 765 
3 765 767 546 
3 768 681 737 
3 741 768 737 
3 570 460 756 
3 644 769 770 
3 634 769 644 
3 653 587 651 
3 647 644 771 
3 772 647 771 
3 772 649 647 
3 773 772 771 
3 771 644 770 
3 663 765 546 
3 465 663 546 
3 774 600 660 
3 661 600 774 
3 600 602 660 
3 723 709 708 
3 352 702 704 
3 775 698 697 
3 685 762 776 
3 685 776 684 
3 777 776 762 
3 686 777 762 
3 626 684 776 
3 622 684 626 
3 741 742 778 
3 669 779 730 
3 749 621 780 
3 780 621 623 
3 680 780 623 
3 574 681 511 
3 738 692 737 
3 741 680 768 
3 680 741 778 
3 680 681 768 
3 521 556 460 
3 688 556 521 
3 781 556 688 
3 668 556 782 
3 782 556 781 
3 530 501 485 
3 783 538 615 
3 750 784 615 
3 783 615 784 
3 783 643 538 
3 661 785 677 
3 774 785 661 
3 681 624 509 
3 681 509 511 
3 471 514 513 
3 780 476 572 
3 742 659 476 
3 769 634 636 
3 596 784 786 
3 596 595 783 
3 783 784 596 
3 783 595 643 
3 784 750 786 
3 752 786 750 
3 488 591 489 
3 711 618 506 
3 618 665 619 
3 618 711 665 
3 617 773 568 
3 773 787 568 
3 780 680 778 
3 751 591 593 
3 788 789 597 
3 790 789 788 
3 789 790 763 
3 789 598 597 
3 791 788 597 
3 788 715 716 
3 790 788 716 
3 790 716 763 
3 715 788 792 
3 652 791 597 
3 676 793 733 
3 500 641 525 
3 794 791 777 
3 788 791 794 
3 794 792 788 
3 776 777 791 
3 777 686 794 
3 713 654 607 
3 787 771 770 
3 607 638 703 
3 262 373 610 
3 610 373 701 
3 696 701 373 
3 689 690 683 
3 795 796 690 
3 761 483 760 
3 753 611 586 
3 753 586 588 
3 567 731 478 
3 595 478 731 
3 787 797 719 
3 711 506 707 
3 506 605 707 
3 721 727 798 
3 781 688 687 
3 662 465 589 
3 326 663 662 
3 438 546 767 
3 495 438 767 
3 593 660 604 
3 604 678 593 
3 724 799 728 
3 727 484 512 
3 630 631 719 
3 551 612 549 
3 714 588 800 
3 714 800 658 
3 637 531 686 
3 449 467 716 
3 451 565 588 
3 801 649 772 
3 747 772 773 
3 801 772 747 
3 726 715 792 
3 326 381 764 
3 663 326 764 
3 616 749 572 
3 780 572 749 
3 623 625 680 
3 681 625 624 
3 733 609 553 
3 609 733 802 
3 759 728 799 
3 803 801 804 
3 805 803 804 
3 638 801 803 
3 801 747 804 
3 635 722 636 
3 746 610 712 
3 778 742 780 
3 714 806 753 
3 806 740 753 
3 713 806 714 
3 504 568 719 
3 720 505 504 
3 787 719 568 
3 797 769 722 
3 769 636 722 
3 798 627 630 
3 798 727 627 
3 574 510 611 
3 743 746 667 
3 785 729 677 
3 807 632 628 
3 628 627 807 
3 229 659 742 
3 622 626 625 
3 555 540 567 
3 791 652 776 
3 582 581 718 
3 685 808 762 
3 687 762 808 
3 574 611 753 
3 678 809 751 
3 752 751 809 
3 678 672 809 
3 593 678 751 
3 660 592 774 
3 593 592 660 
3 749 682 622 
3 649 638 584 
3 702 352 268 
3 268 693 702 
3 797 798 630 
3 719 797 630 
3 473 671 603 
3 473 603 516 
3 748 773 617 
3 675 641 679 
3 476 780 742 
3 610 701 712 
3 665 711 698 
3 567 669 731 
3 723 745 709 
3 579 745 723 
3 795 779 782 
3 782 796 795 
3 641 674 525 
3 675 674 641 
3 723 708 717 
3 524 178 390 
3 682 749 616 
3 734 736 735 
3 809 736 734 
3 787 769 797 
3 797 722 798 
3 469 775 435 
3 435 436 469 
3 773 748 747 
3 727 807 627 
3 799 810 761 
3 579 667 745 
3 579 606 667 
3 392 764 381 
3 724 581 799 
3 802 544 609 
3 668 779 669 
3 668 782 779 
3 588 565 800 
3 727 562 807 
3 643 811 492 
3 752 809 734 
3 730 779 795 
3 690 730 795 
3 595 731 732 
3 471 445 524 
3 579 723 759 
3 499 579 759 
3 759 723 728 
3 733 793 802 
3 793 812 802 
3 499 759 758 
3 499 758 679 
3 610 743 577 
3 798 722 721 
3 143 576 392 
3 649 801 638 
3 771 787 773 
3 805 514 471 
3 752 750 571 
3 392 576 766 
3 804 747 456 
3 805 804 456 
3 517 665 664 
3 761 759 799 
3 585 638 607 
3 732 811 643 
3 595 732 643 
3 396 697 395 
3 732 730 729 
3 732 669 730 
3 682 616 580 
3 373 694 696 
3 395 694 373 
3 803 813 638 
3 395 697 694 
3 594 810 551 
3 551 810 581 
3 553 786 734 
3 734 786 752 
3 786 553 596 
3 806 702 693 
3 740 806 693 
3 691 740 693 
3 713 702 806 
3 698 711 699 
3 562 727 512 
3 810 799 581 
3 764 392 766 
3 814 705 813 
3 531 794 686 
3 793 673 675 
3 758 675 679 
3 811 732 729 
3 785 492 811 
3 808 782 687 
3 687 782 781 
3 793 676 673 
3 736 809 672 
3 746 743 610 
3 722 635 715 
3 704 399 352 
3 683 682 689 
3 656 689 682 
3 682 580 656 
3 399 705 400 
3 399 704 705 
3 770 769 787 
3 665 698 775 
3 785 490 492 
3 758 793 675 
3 811 729 785 
3 435 775 697 
3 524 390 814 
3 814 813 805 
3 803 805 813 
3 396 435 697 
3 390 400 814 
3 814 471 524 
3 814 805 471 
3 665 469 664 
3 469 665 775 
3 400 705 814 
3 443 442 529 
3 443 529 664 
3 442 456 529 
3 664 469 443 
3 456 441 514 
3 805 456 514 
3 613 815 816 
3 632 817 614 
3 552 632 614 
3 550 633 552 
3 785 774 490 
3 774 642 490 
3 642 774 592 
3 591 642 592 
3 817 818 819 
3 614 820 560 
3 796 808 685 
3 796 685 683 
3 690 796 683 
3 581 717 718 
3 717 581 724 
3 587 653 599 
3 821 470 444 
3 444 470 513 
3 443 821 444 
3 821 469 470 
3 821 443 469 
3 471 513 470 
3 441 444 513 
3 633 640 629 
3 629 628 633 
3 629 640 755 
3 754 549 612 
3 640 549 754 
3 755 640 754 
3 754 612 582 
3 754 650 755 
3 822 482 761 
3 761 810 822 
3 810 594 822 
3 807 818 817 
3 632 807 817 
3 818 807 562 
3 570 818 557 
3 818 562 557 
3 823 824 825 
3 824 826 825 
3 827 824 823 
3 828 823 825 
3 828 827 823 
3 829 825 826 
3 827 828 830 
3 829 828 825 
3 831 828 829 
3 828 831 830 
3 830 831 558 
3 832 831 833 
3 558 831 832 
3 830 558 560 
3 827 830 820 
3 820 830 560 
3 482 816 757 
3 482 822 816 
3 816 822 537 
3 822 594 537 
3 776 652 626 
3 626 652 834 
3 624 626 834 
3 652 509 834 
3 509 624 834 
3 481 835 545 
3 481 446 835 
3 545 835 541 
3 835 542 541 
3 542 835 446 
3 545 802 481 
3 483 481 802 
3 802 545 544 
3 481 452 446 
3 483 802 812 
3 676 733 735 
3 495 767 666 
3 743 766 576 
3 483 812 836 
3 760 483 836 
3 758 760 836 
3 812 758 836 
3 793 758 812 
3 459 500 457 
3 641 500 459 
3 766 743 767 
3 767 743 744 
3 767 744 666 
3 450 837 838 
3 800 565 839 
3 840 839 564 
3 450 840 564 
3 837 841 838 
3 646 840 842 
3 841 646 842 
3 843 839 840 
3 837 645 841 
3 645 646 841 
3 842 838 841 
3 645 837 634 
3 837 635 634 
3 646 648 840 
3 648 843 840 
3 843 639 839 
3 843 648 584 
3 639 843 584 
3 839 639 658 
3 800 839 658 
3 839 565 564 
3 837 716 635 
3 837 450 449 
3 837 449 716 
3 824 844 845 
3 844 824 827 
3 820 844 827 
3 559 558 832 
3 832 833 613 
3 833 826 846 
3 613 833 846 
3 844 815 845 
3 826 847 846 
3 826 824 847 
3 815 613 846 
3 847 815 846 
3 824 845 847 
3 845 815 847 
3 818 570 819 
3 570 756 819 
3 819 820 817 
3 820 614 817 
3 756 848 819 
3 848 756 757 
3 537 613 816 
3 819 848 844 
3 819 844 820 
3 815 757 816 
3 848 757 815 
3 1 435 396 
3 706 710 707 
3 317 229 742 
3 463 508 516 
3 462 508 463 
3 516 508 474 
3 763 467 598 
3 599 598 467 
3 504 503 568 
3 580 461 655 
3 658 654 714 
3 578 606 579 
3 794 531 726 
3 792 794 726 
3 813 705 703 
3 638 813 703 
3 598 789 763 
3 497 679 563 
3 832 561 559 
3 561 832 613 
3 694 697 695 
3 796 782 808 
3 833 831 829 
3 826 833 829 
3 450 838 842 
3 840 450 842 
3 848 815 844 
3 451 599 467 
3 599 451 587 
